<?xml version="1.0" encoding="utf-8"?>
<!-- Generator: Adobe Illustrator 16.0.0, SVG Export Plug-In . SVG Version: 6.00 Build 0)  -->
<!DOCTYPE svg PUBLIC "-//W3C//DTD SVG 1.1//EN" "http://www.w3.org/Graphics/SVG/1.1/DTD/svg11.dtd">
<svg version="1.1" id="Capa_1" xmlns="http://www.w3.org/2000/svg" xmlns:xlink="http://www.w3.org/1999/xlink" x="0px" y="0px"
	 width="477px" height="198.425px" viewBox="0 0 477 198.425" enable-background="new 0 0 477 198.425" xml:space="preserve">
<g id="Capa_1_1_">
</g>
<g>
	<rect x="31.12" y="19.535" fill="#F0F0F0" width="401.177" height="120.001"/>
	<g>
		
			<line fill="none" stroke="#FFFFFF" stroke-width="2" stroke-miterlimit="10" x1="231.331" y1="139.537" x2="231.331" y2="19.539"/>
		
			<line fill="none" stroke="#FFFFFF" stroke-width="2" stroke-miterlimit="10" x1="131.488" y1="139.537" x2="131.488" y2="19.539"/>
		
			<line fill="none" stroke="#FFFFFF" stroke-width="2" stroke-miterlimit="10" x1="331.586" y1="139.537" x2="331.586" y2="19.374"/>
	</g>
	<rect x="31.12" y="39.598" fill="#449FA2" width="100.353" height="87.048"/>
	
		<line fill="none" stroke="#333333" stroke-width="0.5" stroke-miterlimit="10" x1="231.094" y1="145.203" x2="231.094" y2="139.537"/>
	
		<line fill="none" stroke="#333333" stroke-width="0.5" stroke-miterlimit="10" x1="331.586" y1="145.203" x2="331.586" y2="139.537"/>
	
		<line fill="none" stroke="#333333" stroke-width="0.5" stroke-miterlimit="10" x1="131.488" y1="145.203" x2="131.488" y2="139.537"/>
	
		<line fill="none" stroke="#333333" stroke-width="0.5" stroke-miterlimit="10" x1="432.344" y1="145.203" x2="432.344" y2="139.537"/>
	<g>
		<path fill="#666666" d="M24.314,151.57c0-1.488,0.229-2.598,0.699-3.318c0.466-0.721,1.178-1.082,2.134-1.082
			c0.931,0,1.634,0.377,2.116,1.129c0.479,0.761,0.723,1.853,0.723,3.273c0,1.479-0.23,2.588-0.697,3.316
			c-0.469,0.73-1.182,1.098-2.142,1.098c-0.925,0-1.628-0.375-2.108-1.121C24.556,154.115,24.314,153.018,24.314,151.57z
			 M25.31,151.57c0,1.244,0.146,2.148,0.438,2.717c0.293,0.566,0.759,0.854,1.396,0.854c0.646,0,1.116-0.287,1.401-0.86
			c0.291-0.572,0.438-1.48,0.438-2.701c0-1.229-0.146-2.127-0.438-2.697c-0.292-0.566-0.759-0.854-1.401-0.854
			c-0.646,0-1.104,0.279-1.396,0.848C25.457,149.425,25.31,150.328,25.31,151.57z"/>
		<path fill="#666666" d="M31.187,149.854c0-0.886,0.146-1.554,0.435-2.002c0.289-0.446,0.717-0.672,1.279-0.672
			c0.563,0,0.997,0.229,1.302,0.694s0.453,1.125,0.453,1.979c0,0.895-0.146,1.564-0.443,2.021c-0.298,0.455-0.729,0.685-1.312,0.685
			c-0.542,0-0.963-0.231-1.264-0.697C31.338,151.396,31.187,150.727,31.187,149.854z M31.978,149.854
			c0,0.666,0.066,1.164,0.217,1.496c0.146,0.334,0.382,0.5,0.706,0.5c0.646,0,0.966-0.666,0.966-1.996
			c0-1.326-0.32-1.987-0.966-1.987c-0.323,0-0.563,0.164-0.706,0.493C32.052,148.689,31.978,149.188,31.978,149.854z
			 M32.702,155.869l4.737-8.566h0.864l-4.739,8.566H32.702z M36.333,153.289c0-0.887,0.146-1.555,0.438-2.002
			c0.29-0.449,0.718-0.676,1.286-0.676c0.552,0,0.979,0.229,1.292,0.688c0.311,0.459,0.463,1.121,0.463,1.988
			c0,0.887-0.146,1.563-0.444,2.014c-0.299,0.455-0.732,0.689-1.311,0.689c-0.558,0-0.979-0.23-1.272-0.693
			C36.48,154.824,36.333,154.158,36.333,153.289z M37.124,153.289c0,0.668,0.069,1.166,0.217,1.494
			c0.146,0.328,0.388,0.492,0.711,0.492c0.329,0,0.572-0.16,0.729-0.486c0.157-0.324,0.235-0.824,0.235-1.5
			c0-0.666-0.078-1.162-0.235-1.479c-0.153-0.322-0.396-0.479-0.729-0.479c-0.325,0-0.563,0.158-0.711,0.479
			C37.195,152.126,37.124,152.623,37.124,153.289z"/>
	</g>
	<g>
		<path fill="#666666" d="M224.13,155.518v-0.938c0.271,0.174,0.612,0.313,1.021,0.412c0.406,0.098,0.81,0.146,1.201,0.146
			c0.688,0,1.224-0.16,1.604-0.48c0.381-0.324,0.568-0.791,0.568-1.402c0-1.188-0.73-1.787-2.197-1.787
			c-0.371,0-0.867,0.063-1.489,0.173l-0.504-0.32l0.325-4.008h4.261v0.896h-3.43l-0.219,2.574c0.449-0.08,0.896-0.121,1.344-0.121
			c0.901,0,1.611,0.226,2.132,0.666c0.521,0.441,0.774,1.055,0.774,1.822c0,0.893-0.28,1.584-0.853,2.092
			c-0.563,0.508-1.343,0.76-2.335,0.76C225.374,155.986,224.637,155.83,224.13,155.518z"/>
		<path fill="#666666" d="M230.809,151.57c0-1.488,0.229-2.598,0.693-3.318c0.472-0.721,1.184-1.082,2.14-1.082
			c0.929,0,1.634,0.377,2.111,1.129c0.479,0.761,0.729,1.853,0.729,3.273c0,1.479-0.23,2.588-0.697,3.316
			c-0.469,0.73-1.182,1.098-2.142,1.098c-0.931,0-1.628-0.375-2.108-1.121C231.05,154.115,230.809,153.018,230.809,151.57z
			 M231.805,151.57c0,1.244,0.146,2.148,0.438,2.717c0.293,0.566,0.76,0.854,1.396,0.854c0.646,0,1.11-0.287,1.401-0.86
			c0.291-0.572,0.438-1.48,0.438-2.701c0-1.229-0.146-2.127-0.438-2.697c-0.292-0.566-0.758-0.854-1.401-0.854
			c-0.645,0-1.104,0.279-1.396,0.848C231.95,149.425,231.805,150.328,231.805,151.57z"/>
		<path fill="#666666" d="M237.682,149.854c0-0.886,0.145-1.554,0.432-2.002c0.289-0.446,0.719-0.672,1.281-0.672
			c0.563,0,0.998,0.229,1.301,0.694c0.307,0.465,0.455,1.125,0.455,1.979c0,0.895-0.146,1.564-0.443,2.021
			c-0.299,0.455-0.729,0.685-1.313,0.685c-0.541,0-0.962-0.231-1.269-0.697C237.833,151.396,237.682,150.727,237.682,149.854z
			 M238.473,149.854c0,0.666,0.066,1.164,0.217,1.496c0.146,0.334,0.378,0.5,0.705,0.5c0.646,0,0.965-0.666,0.965-1.996
			c0-1.326-0.318-1.987-0.965-1.987c-0.324,0-0.563,0.164-0.705,0.493C238.546,148.689,238.473,149.188,238.473,149.854z
			 M239.196,155.869l4.738-8.566h0.859l-4.734,8.566H239.196z M242.826,153.289c0-0.887,0.146-1.555,0.438-2.002
			c0.283-0.449,0.719-0.676,1.279-0.676c0.559,0,0.98,0.229,1.293,0.688s0.469,1.121,0.469,1.988c0,0.887-0.146,1.563-0.447,2.014
			c-0.297,0.455-0.729,0.689-1.313,0.689c-0.551,0-0.979-0.23-1.271-0.693C242.975,154.824,242.826,154.158,242.826,153.289z
			 M243.617,153.289c0,0.668,0.07,1.166,0.217,1.494c0.146,0.328,0.383,0.492,0.711,0.492c0.33,0,0.572-0.16,0.729-0.486
			c0.158-0.324,0.236-0.824,0.236-1.5c0-0.666-0.078-1.162-0.236-1.479c-0.154-0.322-0.396-0.479-0.729-0.479
			c-0.328,0-0.563,0.158-0.711,0.479C243.69,152.126,243.617,152.623,243.617,153.289z"/>
	</g>
	<g>
		<path fill="#666666" d="M421.01,149.055l2.271-1.753h0.842v8.566h-0.973v-6.104c0-0.509,0.02-0.986,0.047-1.438
			c-0.082,0.082-0.174,0.168-0.271,0.258c-0.104,0.09-0.563,0.471-1.396,1.146L421.01,149.055z"/>
		<path fill="#666666" d="M427.367,151.57c0-1.488,0.234-2.598,0.699-3.318c0.467-0.721,1.178-1.082,2.135-1.082
			c0.932,0,1.637,0.377,2.115,1.129c0.479,0.761,0.727,1.853,0.727,3.273c0,1.479-0.234,2.588-0.699,3.316
			c-0.467,0.73-1.182,1.098-2.143,1.098c-0.926,0-1.629-0.375-2.107-1.121C427.612,154.115,427.367,153.018,427.367,151.57z
			 M428.365,151.57c0,1.244,0.146,2.148,0.438,2.717c0.293,0.567,0.764,0.854,1.396,0.854c0.646,0,1.117-0.287,1.406-0.86
			c0.291-0.572,0.438-1.48,0.438-2.701c0-1.229-0.146-2.127-0.438-2.697c-0.289-0.566-0.764-0.854-1.406-0.854
			c-0.642,0-1.104,0.279-1.396,0.848C428.51,149.425,428.365,150.328,428.365,151.57z"/>
		<path fill="#666666" d="M434.233,151.57c0-1.488,0.229-2.598,0.693-3.318c0.471-0.719,1.184-1.082,2.139-1.082
			c0.93,0,1.635,0.377,2.111,1.129c0.479,0.761,0.729,1.853,0.729,3.273c0,1.479-0.23,2.588-0.699,3.316
			c-0.467,0.73-1.18,1.098-2.141,1.098c-0.93,0-1.627-0.375-2.109-1.121C434.469,154.115,434.233,153.018,434.233,151.57z
			 M435.229,151.57c0,1.244,0.146,2.148,0.438,2.717c0.295,0.566,0.762,0.854,1.398,0.854c0.646,0,1.109-0.287,1.4-0.86
			c0.291-0.572,0.438-1.48,0.438-2.701c0-1.229-0.146-2.127-0.438-2.697c-0.291-0.566-0.762-0.854-1.4-0.854
			c-0.645,0-1.104,0.279-1.398,0.848C435.371,149.425,435.229,150.328,435.229,151.57z"/>
		<path fill="#666666" d="M441.106,149.854c0-0.886,0.145-1.554,0.434-2.002c0.287-0.446,0.717-0.672,1.279-0.672
			c0.563,0,0.998,0.229,1.301,0.694c0.307,0.465,0.455,1.125,0.455,1.979c0,0.895-0.146,1.564-0.443,2.021
			c-0.299,0.455-0.734,0.685-1.313,0.685c-0.543,0-0.963-0.231-1.27-0.697C441.254,151.396,441.106,150.727,441.106,149.854z
			 M441.897,149.854c0,0.666,0.066,1.164,0.217,1.496c0.146,0.334,0.381,0.5,0.705,0.5c0.646,0,0.965-0.666,0.965-1.996
			c0-1.326-0.318-1.987-0.965-1.987c-0.324,0-0.563,0.164-0.705,0.493C441.969,148.689,441.897,149.188,441.897,149.854z
			 M442.617,155.869l4.738-8.566h0.857l-4.732,8.566H442.617z M446.25,153.289c0-0.887,0.145-1.555,0.434-2.002
			c0.289-0.449,0.725-0.676,1.285-0.676c0.559,0,0.98,0.229,1.291,0.688c0.313,0.459,0.465,1.121,0.465,1.988
			c0,0.887-0.146,1.563-0.441,2.014c-0.297,0.455-0.73,0.689-1.313,0.689c-0.551,0-0.979-0.23-1.271-0.693
			C446.399,154.824,446.25,154.158,446.25,153.289z M447.039,153.289c0,0.668,0.07,1.166,0.219,1.494
			c0.147,0.328,0.383,0.492,0.711,0.492c0.33,0,0.57-0.16,0.729-0.486c0.158-0.324,0.23-0.824,0.23-1.5
			c0-0.666-0.072-1.162-0.23-1.479c-0.152-0.322-0.396-0.479-0.729-0.479c-0.33,0-0.563,0.158-0.711,0.479
			C447.112,152.126,447.039,152.623,447.039,153.289z"/>
	</g>
	<rect x="238.486" y="39.598" fill="#58585A" width="42.987" height="87.049"/>
	<rect x="281.473" y="39.598" fill="#CAE4E4" width="150.854" height="87.048"/>
	<rect x="131.473" y="39.598" fill="#F2C466" width="62.075" height="87.048"/>
	<rect x="193.548" y="39.598" fill="#F6A400" width="44.938" height="87.048"/>
	<g>
		<g>
			<rect x="22.99" y="175.564" fill="#449FA2" width="14.217" height="14.217"/>
			<g>
				<path fill="#666666" d="M42.717,182.66c0-1.029,0.188-1.932,0.57-2.707c0.381-0.771,0.936-1.369,1.662-1.789
					c0.725-0.418,1.574-0.629,2.563-0.629c1.049,0,1.965,0.191,2.748,0.574l-0.492,0.998c-0.756-0.355-1.516-0.533-2.271-0.533
					c-1.104,0-1.965,0.365-2.604,1.098c-0.635,0.73-0.953,1.73-0.953,3.002c0,1.313,0.313,2.316,0.921,3.027
					c0.612,0.713,1.485,1.07,2.62,1.07c0.697,0,1.492-0.125,2.395-0.377v1.021c-0.691,0.262-1.556,0.396-2.563,0.396
					c-1.475,0-2.604-0.446-3.396-1.343C43.115,185.576,42.717,184.307,42.717,182.66z"/>
				<path fill="#666666" d="M51.336,185.609c0-1.51,1.213-2.301,3.637-2.373l1.271-0.041v-0.471c0-0.598-0.125-1.035-0.379-1.318
					c-0.26-0.283-0.654-0.426-1.219-0.426c-0.623,0-1.32,0.191-2.107,0.582l-0.354-0.871c0.369-0.197,0.771-0.354,1.213-0.465
					c0.438-0.111,0.881-0.168,1.322-0.168c0.896,0,1.555,0.195,1.982,0.594c0.43,0.396,0.646,1.033,0.646,1.908v5.109h-0.84
					l-0.229-1.053h-0.05c-0.373,0.463-0.746,0.772-1.117,0.938c-0.361,0.162-0.832,0.242-1.389,0.242
					c-0.746,0-1.33-0.188-1.754-0.568C51.547,186.855,51.336,186.314,51.336,185.609z M52.541,185.623
					c0,0.412,0.123,0.729,0.371,0.941s0.594,0.32,1.041,0.32c0.705,0,1.258-0.191,1.652-0.584c0.404-0.389,0.604-0.934,0.604-1.635
					v-0.687l-1.133,0.054c-0.898,0.026-1.553,0.174-1.947,0.424C52.74,184.708,52.541,185.098,52.541,185.623z"/>
				<path fill="#666666" d="M59.683,187.673v-7.491h0.924l0.188,1.012h0.057c0.23-0.362,0.563-0.646,0.979-0.849
					c0.42-0.2,0.887-0.301,1.396-0.301c0.9,0,1.582,0.217,2.035,0.646c0.455,0.438,0.688,1.137,0.688,2.094v4.889H64.81v-4.854
					c0-0.612-0.141-1.067-0.418-1.37c-0.271-0.302-0.713-0.451-1.307-0.451c-0.781,0-1.355,0.211-1.726,0.637
					c-0.362,0.434-0.552,1.125-0.552,2.105v3.938H59.68L59.683,187.673L59.683,187.673z"/>
				<path fill="#666666" d="M67.859,183.977c0-1.254,0.309-2.224,0.898-2.906c0.6-0.685,1.457-1.024,2.574-1.024
					c0.354,0,0.721,0.039,1.08,0.117c0.354,0.076,0.643,0.168,0.848,0.272l-0.35,0.963c-0.25-0.103-0.523-0.185-0.82-0.25
					c-0.295-0.063-0.557-0.101-0.785-0.101c-1.521,0-2.283,0.974-2.283,2.912c0,0.922,0.188,1.627,0.563,2.119
					s0.922,0.732,1.646,0.732c0.623,0,1.271-0.137,1.92-0.396v1.004c-0.502,0.263-1.133,0.392-1.895,0.392
					c-1.084,0-1.922-0.334-2.512-1.002C68.154,186.143,67.859,185.197,67.859,183.977z"/>
				<path fill="#666666" d="M74.525,183.988c0-1.207,0.295-2.166,0.896-2.877c0.594-0.711,1.391-1.066,2.391-1.066
					c0.938,0,1.676,0.313,2.223,0.933c0.548,0.61,0.814,1.438,0.814,2.438v0.719H75.69c0.021,0.887,0.246,1.553,0.668,2.002
					c0.422,0.457,1.021,0.689,1.785,0.689c0.803,0,1.604-0.172,2.385-0.508v1.016c-0.396,0.172-0.771,0.297-1.135,0.371
					c-0.354,0.072-0.787,0.109-1.291,0.109c-1.104,0-1.979-0.336-2.615-1.016C74.845,186.123,74.525,185.188,74.525,183.988z
					 M75.713,183.208h3.926c0-0.715-0.16-1.27-0.479-1.646c-0.318-0.381-0.775-0.568-1.369-0.568c-0.604,0-1.084,0.193-1.439,0.588
					C75.988,181.975,75.777,182.518,75.713,183.208z"/>
				<path fill="#666666" d="M82.795,187.673v-7.491h0.924l0.139,1.396h0.063c0.271-0.49,0.605-0.867,1.006-1.134
					c0.395-0.267,0.822-0.397,1.293-0.397c0.332,0,0.633,0.027,0.896,0.084l-0.155,1.063c-0.313-0.065-0.582-0.104-0.82-0.104
					c-0.604,0-1.123,0.246-1.555,0.738c-0.438,0.489-0.646,1.104-0.646,1.836v4.02L82.795,187.673L82.795,187.673z"/>
			</g>
		</g>
		<g>
			<rect x="181.031" y="175.564" fill="#F6A400" width="14.225" height="14.217"/>
			<g>
				<path fill="#666666" d="M200.453,181.294c0-1.028,0.188-1.938,0.566-2.705c0.381-0.772,0.938-1.371,1.661-1.789
					c0.729-0.42,1.582-0.629,2.565-0.629c1.048,0,1.964,0.188,2.748,0.572l-0.492,0.998c-0.756-0.354-1.521-0.531-2.271-0.531
					c-1.098,0-1.965,0.363-2.602,1.097c-0.636,0.729-0.953,1.729-0.953,3.002c0,1.308,0.307,2.315,0.919,3.028
					s1.486,1.068,2.622,1.068c0.696,0,1.492-0.125,2.386-0.383v1.021c-0.688,0.267-1.547,0.396-2.563,0.396
					c-1.479,0-2.604-0.442-3.4-1.342C200.851,184.21,200.453,182.941,200.453,181.294z"/>
				<path fill="#666666" d="M209.538,176.785c0-0.26,0.063-0.449,0.179-0.57c0.118-0.112,0.266-0.182,0.438-0.182
					c0.197,0,0.366,0.063,0.513,0.186c0.146,0.123,0.217,0.314,0.217,0.566c0,0.254-0.07,0.445-0.217,0.572
					c-0.146,0.125-0.313,0.188-0.513,0.188c-0.176,0-0.317-0.063-0.438-0.188S209.538,177.041,209.538,176.785z M209.635,186.309
					v-7.492h1.039v7.492H209.635z"/>
				<path fill="#666666" d="M213.176,186.309v-7.492h0.924l0.139,1.396h0.063c0.276-0.48,0.611-0.857,1.007-1.133
					c0.396-0.267,0.822-0.396,1.292-0.396c0.333,0,0.631,0.026,0.896,0.082l-0.154,1.06c-0.313-0.066-0.583-0.103-0.819-0.103
					c-0.604,0-1.125,0.245-1.556,0.735c-0.434,0.492-0.646,1.104-0.646,1.838v4.017h-1.138L213.176,186.309L213.176,186.309z"/>
				<path fill="#666666" d="M218.193,182.611c0-1.254,0.305-2.223,0.898-2.906c0.6-0.682,1.457-1.021,2.574-1.021
					c0.354,0,0.72,0.039,1.077,0.112c0.355,0.078,0.646,0.17,0.851,0.271l-0.352,0.966c-0.25-0.103-0.521-0.188-0.817-0.25
					c-0.296-0.064-0.563-0.101-0.785-0.101c-1.521,0-2.283,0.971-2.283,2.909c0,0.923,0.188,1.629,0.562,2.117
					c0.371,0.492,0.925,0.735,1.646,0.735c0.625,0,1.27-0.138,1.921-0.401v1.01c-0.501,0.261-1.132,0.39-1.895,0.39
					c-1.084,0-1.922-0.334-2.515-1.002C218.488,184.777,218.193,183.832,218.193,182.611z"/>
				<path fill="#666666" d="M225.193,183.718v-4.901h1.162v4.86c0,0.609,0.144,1.064,0.416,1.367
					c0.277,0.302,0.712,0.449,1.309,0.449c0.777,0,1.354-0.213,1.719-0.646c0.354-0.434,0.542-1.127,0.542-2.104v-3.938h1.135v7.491
					h-0.923l-0.178-1.006h-0.063c-0.229,0.369-0.555,0.647-0.967,0.851c-0.412,0.194-0.881,0.293-1.408,0.293
					c-0.916,0-1.604-0.218-2.057-0.647C225.421,185.365,225.193,184.669,225.193,183.718z"/>
				<path fill="#666666" d="M233.867,186.309v-10.638h1.138v10.638H233.867z"/>
				<path fill="#666666" d="M236.849,184.244c0-1.51,1.211-2.301,3.635-2.373l1.272-0.041v-0.471c0-0.596-0.126-1.035-0.379-1.316
					c-0.252-0.285-0.655-0.428-1.211-0.428c-0.623,0-1.328,0.193-2.115,0.582l-0.354-0.871c0.369-0.197,0.773-0.354,1.218-0.465
					c0.438-0.111,0.883-0.168,1.318-0.168c0.896,0,1.558,0.197,1.982,0.594c0.431,0.398,0.646,1.033,0.646,1.908v5.113h-0.841
					l-0.227-1.057h-0.063c-0.373,0.465-0.745,0.779-1.111,0.938c-0.368,0.163-0.833,0.245-1.394,0.245
					c-0.746,0-1.331-0.188-1.755-0.565C237.06,185.49,236.849,184.949,236.849,184.244z M238.052,184.259
					c0,0.412,0.124,0.726,0.372,0.939c0.248,0.215,0.596,0.316,1.041,0.316c0.705,0,1.26-0.188,1.661-0.584
					c0.396-0.396,0.604-0.938,0.604-1.643v-0.68l-1.133,0.049c-0.9,0.031-1.551,0.172-1.948,0.422
					C238.251,183.343,238.052,183.732,238.052,184.259z"/>
				<path fill="#666666" d="M244.203,179.697v-0.547l1.068-0.471l0.479-1.604h0.65v1.729h2.18v0.883h-2.18v4.427
					c0,0.444,0.105,0.799,0.319,1.041c0.214,0.235,0.508,0.355,0.882,0.355c0.201,0,0.396-0.02,0.581-0.047
					c0.188-0.026,0.335-0.063,0.444-0.096v0.855c-0.123,0.061-0.305,0.105-0.543,0.146c-0.239,0.039-0.455,0.057-0.646,0.057
					c-1.441,0-2.174-0.764-2.174-2.288v-4.457h-1.068L244.203,179.697L244.203,179.697z"/>
				<path fill="#666666" d="M249.72,182.548c0-1.219,0.305-2.168,0.913-2.85c0.604-0.686,1.454-1.021,2.536-1.021
					c1.045,0,1.875,0.35,2.488,1.045c0.611,0.695,0.926,1.639,0.926,2.824c0,1.225-0.313,2.18-0.923,2.865
					c-0.61,0.688-1.46,1.022-2.542,1.022c-0.668,0-1.266-0.149-1.776-0.479c-0.521-0.313-0.918-0.768-1.199-1.354
					C249.86,184.027,249.72,183.339,249.72,182.548z M250.883,182.548c0,0.959,0.188,1.688,0.575,2.191
					c0.383,0.504,0.939,0.754,1.688,0.754s1.313-0.25,1.693-0.75c0.386-0.5,0.579-1.229,0.579-2.195c0-0.955-0.192-1.68-0.579-2.176
					c-0.389-0.494-0.954-0.742-1.708-0.742c-0.743,0-1.313,0.244-1.688,0.729C251.068,180.85,250.883,181.58,250.883,182.548z"/>
				<path fill="#666666" d="M258.594,186.309v-7.492h0.924l0.144,1.396h0.062c0.276-0.48,0.611-0.857,1.007-1.133
					c0.396-0.267,0.822-0.396,1.291-0.396c0.333,0,0.631,0.026,0.896,0.082l-0.154,1.06c-0.313-0.066-0.583-0.103-0.82-0.103
					c-0.604,0-1.124,0.245-1.555,0.735c-0.434,0.492-0.646,1.104-0.646,1.838v4.017h-1.142v-0.004H258.594z"/>
				<path fill="#666666" d="M263.118,178.816h1.22l1.641,4.271c0.36,0.976,0.583,1.679,0.671,2.104h0.06
					c0.062-0.229,0.187-0.629,0.373-1.188c0.188-0.563,0.811-2.291,1.854-5.188h1.217l-3.22,8.531
					c-0.318,0.842-0.688,1.438-1.118,1.795c-0.426,0.354-0.946,0.526-1.563,0.526c-0.352,0-0.688-0.039-1.022-0.115v-0.916
					c0.25,0.056,0.531,0.082,0.841,0.082c0.779,0,1.335-0.438,1.668-1.313l0.417-1.063L263.118,178.816z"/>
			</g>
		</g>
		<rect x="397.348" y="175.564" fill="#CAE4E4" width="14.217" height="14.217"/>
		<g>
			<path fill="#666666" d="M417.49,182.906c0-1.631,0.402-2.895,1.203-3.789c0.811-0.896,1.941-1.348,3.418-1.348
				c1.438,0,2.563,0.457,3.363,1.369c0.807,0.912,1.211,2.172,1.211,3.777c0,1.6-0.404,2.854-1.213,3.77
				c-0.813,0.916-1.938,1.373-3.375,1.373c-1.472,0-2.607-0.449-3.406-1.35C417.897,185.813,417.49,184.544,417.49,182.906z
				 M418.729,182.919c0,1.354,0.287,2.383,0.863,3.084s1.414,1.054,2.514,1.054c1.105,0,1.943-0.353,2.508-1.05
				c0.566-0.696,0.854-1.729,0.854-3.088c0-1.354-0.279-2.369-0.852-3.063c-0.563-0.694-1.395-1.043-2.498-1.043
				c-1.103,0-1.941,0.351-2.521,1.052C419.016,180.563,418.729,181.582,418.729,182.919z"/>
			<path fill="#666666" d="M427.758,181.313v-0.547l1.064-0.474l0.48-1.604h0.656v1.733h2.174v0.886h-2.174v4.42
				c0,0.45,0.104,0.799,0.313,1.041c0.217,0.239,0.511,0.358,0.883,0.358c0.199,0,0.396-0.017,0.58-0.045
				c0.188-0.024,0.335-0.063,0.443-0.092v0.854c-0.123,0.063-0.304,0.105-0.543,0.146c-0.238,0.038-0.455,0.061-0.646,0.061
				c-1.443,0-2.176-0.766-2.176-2.287v-4.457h-1.066v0.003L427.758,181.313L427.758,181.313z"/>
			<path fill="#666666" d="M433.692,187.923v-10.637h1.135v3.219c0,0.39-0.018,0.709-0.055,0.965h0.068
				c0.223-0.358,0.541-0.645,0.953-0.852c0.404-0.207,0.883-0.313,1.404-0.313c0.916,0,1.604,0.217,2.063,0.649
				c0.459,0.438,0.688,1.127,0.688,2.076v4.887h-1.135v-4.851c0-0.606-0.139-1.063-0.416-1.362
				c-0.279-0.306-0.715-0.451-1.307-0.451c-0.789,0-1.363,0.215-1.729,0.644c-0.354,0.433-0.543,1.131-0.543,2.104v3.916h-1.135
				L433.692,187.923L433.692,187.923z"/>
			<path fill="#666666" d="M441.865,184.236c0-1.205,0.297-2.166,0.896-2.877c0.594-0.711,1.389-1.064,2.389-1.064
				c0.938,0,1.676,0.313,2.221,0.932c0.546,0.611,0.818,1.438,0.818,2.438v0.719h-5.154c0.023,0.888,0.244,1.553,0.668,2.002
				c0.425,0.457,1.021,0.689,1.783,0.689c0.805,0,1.604-0.171,2.385-0.507v1.015c-0.396,0.172-0.771,0.297-1.135,0.371
				c-0.354,0.073-0.787,0.11-1.291,0.11c-1.104,0-1.977-0.336-2.615-1.015C442.189,186.373,441.865,185.438,441.865,184.236z
				 M443.057,183.458h3.924c0-0.715-0.16-1.271-0.479-1.646c-0.318-0.381-0.775-0.568-1.369-0.568c-0.604,0-1.082,0.193-1.441,0.588
				C443.324,182.225,443.115,182.768,443.057,183.458z"/>
			<path fill="#666666" d="M450.139,187.923v-7.491h0.924l0.139,1.396h0.063c0.271-0.49,0.605-0.867,1.006-1.134
				c0.393-0.267,0.822-0.397,1.293-0.397c0.332,0,0.631,0.027,0.896,0.084l-0.154,1.063c-0.313-0.063-0.584-0.104-0.82-0.104
				c-0.604,0-1.125,0.246-1.555,0.738c-0.438,0.489-0.646,1.104-0.646,1.836v4.018L450.139,187.923L450.139,187.923z"/>
			<path fill="#666666" d="M455.375,182.271c0-0.611,0.24-1.096,0.736-1.447c0.496-0.351,1.186-0.529,2.041-0.529
				c0.811,0,1.586,0.164,2.354,0.492l-0.396,0.924c-0.748-0.311-1.428-0.467-2.037-0.467c-0.539,0-0.938,0.086-1.219,0.254
				c-0.271,0.17-0.41,0.402-0.41,0.699c0,0.201,0.058,0.371,0.154,0.514c0.102,0.146,0.268,0.275,0.496,0.404
				c0.228,0.129,0.666,0.313,1.313,0.555c0.896,0.324,1.486,0.65,1.793,0.98c0.313,0.328,0.459,0.742,0.459,1.24
				c0,0.691-0.258,1.229-0.771,1.604c-0.518,0.377-1.24,0.564-2.174,0.564c-0.992,0-1.771-0.154-2.32-0.467v-1.047
				c0.359,0.186,0.744,0.326,1.156,0.434c0.412,0.104,0.809,0.154,1.188,0.154c0.604,0,1.059-0.094,1.371-0.281
				c0.32-0.189,0.479-0.479,0.479-0.867c0-0.291-0.127-0.541-0.379-0.75c-0.264-0.207-0.748-0.453-1.484-0.736
				c-0.697-0.26-1.193-0.488-1.486-0.682s-0.51-0.414-0.646-0.662C455.448,182.91,455.375,182.615,455.375,182.271z"/>
		</g>
		<g>
			<rect x="103.981" y="175.564" fill="#F2C466" width="14.216" height="14.217"/>
			<g>
				<path fill="#666666" d="M124.65,187.673v-9.993h1.75l3.166,8.243h0.06l3.188-8.243h1.733v9.993h-1.162v-6.438
					c0-0.737,0.033-1.541,0.099-2.405h-0.058l-3.418,8.846h-0.938l-3.392-8.854h-0.057c0.063,0.703,0.098,1.537,0.098,2.504v6.354
					L124.65,187.673L124.65,187.673z"/>
				<path fill="#666666" d="M136.63,187.357v-1.113c0.41,0.174,0.854,0.313,1.343,0.41c0.479,0.1,0.961,0.148,1.438,0.148
					c0.771,0,1.354-0.145,1.752-0.439c0.396-0.294,0.592-0.703,0.592-1.229c0-0.348-0.067-0.631-0.211-0.854
					c-0.144-0.221-0.371-0.426-0.695-0.61c-0.325-0.188-0.821-0.396-1.489-0.637c-0.933-0.334-1.596-0.73-1.983-1.187
					c-0.396-0.457-0.592-1.054-0.592-1.787c0-0.771,0.284-1.386,0.862-1.843c0.573-0.455,1.34-0.684,2.289-0.684
					c0.985,0,1.897,0.182,2.729,0.547l-0.354,1.012c-0.824-0.346-1.625-0.521-2.397-0.521c-0.617,0-1.103,0.135-1.445,0.396
					c-0.35,0.268-0.521,0.635-0.521,1.104c0,0.348,0.063,0.633,0.188,0.854c0.127,0.228,0.347,0.431,0.646,0.609
					c0.309,0.186,0.771,0.389,1.396,0.611c1.054,0.373,1.771,0.771,2.16,1.205c0.394,0.43,0.584,0.98,0.584,1.67
					c0,0.877-0.313,1.563-0.955,2.051c-0.637,0.49-1.5,0.732-2.59,0.732C138.179,187.811,137.267,187.66,136.63,187.357z"/>
				<path fill="#666666" d="M144.974,187.673v-9.993h3.063c1.555,0,2.764,0.432,3.623,1.293c0.856,0.858,1.291,2.063,1.291,3.606
					c0,1.646-0.445,2.912-1.347,3.785c-0.896,0.865-2.188,1.309-3.862,1.309H144.974L144.974,187.673z M146.136,186.667h1.411
					c1.39,0,2.431-0.34,3.125-1.021c0.697-0.682,1.048-1.688,1.048-3.021c0-1.307-0.326-2.285-0.979-2.947
					c-0.652-0.653-1.625-0.983-2.916-0.983h-1.688L146.136,186.667L146.136,186.667z"/>
			</g>
		</g>
		<g>
			<rect x="301.78" y="175.564" fill="#58585A" width="14.217" height="14.217"/>
			<g>
				<path fill="#666666" d="M322.865,186.128v-9.994h1.162v9.994H322.865z"/>
				<path fill="#666666" d="M326.606,186.128v-7.492h0.924l0.188,1.013h0.057c0.23-0.362,0.557-0.646,0.979-0.849
					c0.422-0.2,0.889-0.301,1.396-0.301c0.902,0,1.582,0.219,2.037,0.646c0.455,0.438,0.684,1.139,0.684,2.096v4.887h-1.135v-4.854
					c0-0.61-0.139-1.067-0.418-1.368c-0.271-0.304-0.713-0.453-1.305-0.453c-0.785,0-1.359,0.213-1.729,0.637
					c-0.357,0.434-0.547,1.127-0.547,2.104v3.938h-1.135L326.606,186.128L326.606,186.128z"/>
				<path fill="#666666" d="M333.237,188.406c0.314,0.09,0.625,0.137,0.93,0.137c0.355,0,0.617-0.098,0.783-0.291
					c0.168-0.188,0.25-0.49,0.25-0.887v-8.729h1.143v8.642c0,1.478-0.688,2.216-2.051,2.216c-0.434,0-0.775-0.058-1.053-0.17v-0.916
					h-0.002V188.406L333.237,188.406z M335.104,176.605c0-0.262,0.063-0.449,0.189-0.57c0.127-0.119,0.279-0.182,0.479-0.182
					c0.207,0,0.387,0.063,0.539,0.186c0.15,0.123,0.227,0.313,0.227,0.566c0,0.252-0.068,0.443-0.227,0.57
					c-0.152,0.125-0.332,0.189-0.539,0.189c-0.191,0-0.352-0.064-0.479-0.189C335.158,177.052,335.104,176.861,335.104,176.605z"/>
				<path fill="#666666" d="M338.656,183.539v-4.896h1.162v4.854c0,0.609,0.146,1.064,0.416,1.367
					c0.277,0.301,0.711,0.449,1.303,0.449c0.783,0,1.355-0.213,1.725-0.645c0.354-0.428,0.543-1.127,0.543-2.104v-3.938h1.135v7.492
					h-0.924l-0.176-1.004h-0.063c-0.229,0.367-0.555,0.646-0.967,0.85c-0.412,0.193-0.881,0.295-1.408,0.295
					c-0.916,0-1.602-0.221-2.057-0.646C338.884,185.184,338.656,184.49,338.656,183.539z"/>
				<path fill="#666666" d="M347.324,186.128v-7.492h0.932l0.139,1.396h0.059c0.279-0.488,0.615-0.865,1.014-1.14
					c0.393-0.271,0.816-0.396,1.293-0.396c0.332,0,0.631,0.023,0.896,0.082l-0.158,1.063c-0.309-0.063-0.581-0.104-0.813-0.104
					c-0.605,0-1.125,0.246-1.563,0.731c-0.43,0.491-0.645,1.104-0.645,1.841v4.018h-1.141H347.324L347.324,186.128z"/>
				<path fill="#666666" d="M352.948,176.605c0-0.262,0.063-0.449,0.184-0.57c0.111-0.119,0.266-0.182,0.438-0.182
					c0.197,0,0.367,0.063,0.508,0.186c0.146,0.123,0.215,0.313,0.215,0.566c0,0.252-0.063,0.443-0.215,0.57
					c-0.143,0.125-0.311,0.189-0.508,0.189c-0.176,0-0.324-0.064-0.438-0.189C353.01,177.052,352.948,176.861,352.948,176.605z
					 M353.049,186.128v-7.492h1.037v7.492H353.049z"/>
				<path fill="#666666" d="M356.172,182.445c0-1.209,0.297-2.168,0.889-2.879c0.594-0.711,1.389-1.066,2.389-1.066
					c0.938,0,1.684,0.313,2.229,0.926c0.547,0.619,0.813,1.439,0.813,2.445v0.717h-5.146c0.021,0.881,0.236,1.547,0.666,2.004
					c0.424,0.455,1.018,0.689,1.777,0.689c0.811,0,1.604-0.171,2.393-0.507v1.017c-0.4,0.174-0.777,0.299-1.143,0.373
					c-0.354,0.069-0.786,0.106-1.291,0.106c-1.104,0-1.977-0.336-2.607-1.017C356.49,184.58,356.172,183.643,356.172,182.445z
					 M357.362,181.666h3.924c0-0.717-0.152-1.266-0.479-1.645c-0.32-0.381-0.777-0.57-1.371-0.57c-0.604,0-1.082,0.195-1.441,0.588
					C357.637,180.43,357.426,180.973,357.362,181.666z"/>
				<path fill="#666666" d="M363.963,180.477c0-0.608,0.248-1.095,0.736-1.444c0.498-0.355,1.186-0.531,2.051-0.531
					c0.803,0,1.584,0.164,2.352,0.492l-0.396,0.924c-0.75-0.312-1.428-0.465-2.029-0.465c-0.539,0-0.945,0.084-1.227,0.254
					c-0.271,0.168-0.412,0.399-0.412,0.696c0,0.201,0.061,0.371,0.154,0.515c0.104,0.146,0.271,0.274,0.498,0.404
					c0.229,0.129,0.666,0.313,1.314,0.557c0.889,0.324,1.479,0.647,1.791,0.979c0.307,0.328,0.461,0.742,0.461,1.24
					c0,0.692-0.268,1.229-0.775,1.604c-0.518,0.375-1.242,0.563-2.176,0.563c-0.992,0-1.771-0.154-2.32-0.467v-1.047
					c0.359,0.186,0.746,0.326,1.158,0.434c0.412,0.105,0.809,0.156,1.188,0.156c0.604,0,1.059-0.096,1.371-0.283
					c0.32-0.188,0.479-0.479,0.479-0.867c0-0.291-0.127-0.541-0.379-0.75c-0.254-0.207-0.748-0.451-1.484-0.734
					c-0.699-0.262-1.195-0.482-1.486-0.684c-0.293-0.193-0.51-0.414-0.646-0.66C364.031,181.115,363.963,180.82,363.963,180.477z"/>
			</g>
		</g>
	</g>
	<g>
		<g>
			
				<line fill="none" stroke="#333333" stroke-width="0.5" stroke-miterlimit="10" x1="81.304" y1="139.529" x2="81.304" y2="142.371"/>
		</g>
		<g>
			
				<line fill="none" stroke="#333333" stroke-width="0.5" stroke-miterlimit="10" x1="181.038" y1="139.529" x2="181.038" y2="142.371"/>
		</g>
		<g>
			
				<line fill="none" stroke="#333333" stroke-width="0.5" stroke-miterlimit="10" x1="281.488" y1="139.529" x2="281.488" y2="142.371"/>
		</g>
		<g>
			
				<line fill="none" stroke="#333333" stroke-width="0.5" stroke-miterlimit="10" x1="381.963" y1="139.529" x2="381.963" y2="142.371"/>
		</g>
	</g>
	<g>
		<path fill="#FFFFFF" d="M73.581,87.607h-7.984v-1.68l2.867-2.898c0.849-0.87,1.403-1.473,1.664-1.809s0.448-0.647,0.563-0.934
			c0.114-0.286,0.172-0.583,0.172-0.891c0-0.458-0.126-0.799-0.379-1.023c-0.253-0.224-0.59-0.336-1.012-0.336
			c-0.442,0-0.872,0.102-1.289,0.305s-0.852,0.492-1.305,0.867l-1.313-1.555c0.563-0.479,1.028-0.817,1.398-1.016
			c0.37-0.198,0.773-0.35,1.211-0.457c0.438-0.106,0.927-0.16,1.469-0.16c0.714,0,1.344,0.13,1.891,0.391
			c0.547,0.261,0.972,0.625,1.273,1.094s0.453,1.005,0.453,1.609c0,0.526-0.093,1.02-0.277,1.48s-0.472,0.934-0.859,1.418
			s-1.071,1.175-2.051,2.07l-1.469,1.383v0.109h4.977V87.607z"/>
		<path fill="#FFFFFF" d="M78.886,80.31c1.104,0,1.983,0.31,2.637,0.93c0.653,0.62,0.98,1.469,0.98,2.547
			c0,1.276-0.394,2.258-1.18,2.945s-1.911,1.031-3.375,1.031c-1.271,0-2.297-0.206-3.078-0.617V85.06
			c0.411,0.219,0.891,0.397,1.438,0.535c0.547,0.138,1.065,0.207,1.555,0.207c1.474,0,2.211-0.604,2.211-1.813
			c0-1.151-0.763-1.727-2.289-1.727c-0.276,0-0.581,0.027-0.914,0.082s-0.604,0.113-0.813,0.176l-0.961-0.516l0.43-5.82h6.195v2.047
			h-4.078l-0.211,2.242l0.273-0.055C78.024,80.347,78.417,80.31,78.886,80.31z"/>
		<path fill="#FFFFFF" d="M89.144,79.591c0,1.198-0.231,2.098-0.695,2.699s-1.144,0.902-2.039,0.902
			c-0.859,0-1.523-0.309-1.992-0.926s-0.703-1.509-0.703-2.676c0-2.38,0.898-3.57,2.695-3.57c0.88,0,1.556,0.309,2.027,0.926
			S89.144,78.446,89.144,79.591z M85.683,79.607c0,0.662,0.059,1.155,0.176,1.48c0.117,0.326,0.306,0.488,0.566,0.488
			c0.5,0,0.75-0.656,0.75-1.969c0-1.302-0.25-1.953-0.75-1.953c-0.261,0-0.449,0.16-0.566,0.48S85.683,78.946,85.683,79.607z
			 M94.519,76.185l-6.336,11.422h-1.875l6.336-11.422H94.519z M97.144,84.154c0,1.193-0.231,2.09-0.695,2.691
			s-1.144,0.902-2.039,0.902c-0.859,0-1.523-0.309-1.992-0.926s-0.703-1.506-0.703-2.668c0-2.38,0.898-3.57,2.695-3.57
			c0.88,0,1.556,0.309,2.027,0.926S97.144,83.008,97.144,84.154z M93.683,84.169c0,0.662,0.059,1.155,0.176,1.48
			c0.117,0.326,0.306,0.488,0.566,0.488c0.5,0,0.75-0.656,0.75-1.969c0-1.302-0.25-1.953-0.75-1.953c-0.261,0-0.449,0.16-0.566,0.48
			S93.683,83.508,93.683,84.169z"/>
	</g>
	<g>
		<path fill="#FFFFFF" d="M152.78,87.607h-2.414v-6.609l0.023-1.086l0.039-1.188c-0.401,0.401-0.68,0.664-0.836,0.789l-1.313,1.055
			l-1.164-1.453l3.68-2.93h1.984V87.607z"/>
		<path fill="#FFFFFF" d="M160.1,80.31c1.104,0,1.983,0.31,2.637,0.93c0.653,0.62,0.98,1.469,0.98,2.547
			c0,1.276-0.394,2.258-1.18,2.945s-1.911,1.031-3.375,1.031c-1.271,0-2.297-0.206-3.078-0.617V85.06
			c0.411,0.219,0.891,0.397,1.438,0.535c0.547,0.138,1.065,0.207,1.555,0.207c1.474,0,2.211-0.604,2.211-1.813
			c0-1.151-0.763-1.727-2.289-1.727c-0.276,0-0.581,0.027-0.914,0.082s-0.604,0.113-0.813,0.176l-0.961-0.516l0.43-5.82h6.195v2.047
			h-4.078l-0.211,2.242l0.273-0.055C159.238,80.347,159.632,80.31,160.1,80.31z"/>
		<path fill="#FFFFFF" d="M170.358,79.591c0,1.198-0.231,2.098-0.695,2.699s-1.144,0.902-2.039,0.902
			c-0.859,0-1.523-0.309-1.992-0.926s-0.703-1.509-0.703-2.676c0-2.38,0.898-3.57,2.695-3.57c0.88,0,1.556,0.309,2.027,0.926
			S170.358,78.446,170.358,79.591z M166.897,79.607c0,0.662,0.059,1.155,0.176,1.48c0.117,0.326,0.306,0.488,0.566,0.488
			c0.5,0,0.75-0.656,0.75-1.969c0-1.302-0.25-1.953-0.75-1.953c-0.261,0-0.449,0.16-0.566,0.48S166.897,78.946,166.897,79.607z
			 M175.733,76.185l-6.336,11.422h-1.875l6.336-11.422H175.733z M178.358,84.154c0,1.193-0.231,2.09-0.695,2.691
			s-1.144,0.902-2.039,0.902c-0.859,0-1.523-0.309-1.992-0.926s-0.703-1.506-0.703-2.668c0-2.38,0.898-3.57,2.695-3.57
			c0.88,0,1.556,0.309,2.027,0.926S178.358,83.008,178.358,84.154z M174.897,84.169c0,0.662,0.059,1.155,0.176,1.48
			c0.117,0.326,0.306,0.488,0.566,0.488c0.5,0,0.75-0.656,0.75-1.969c0-1.302-0.25-1.953-0.75-1.953c-0.261,0-0.449,0.16-0.566,0.48
			S174.897,83.508,174.897,84.169z"/>
	</g>
	<g>
		<path fill="#FFFFFF" d="M206.286,87.607h-2.414v-6.609l0.023-1.086l0.039-1.188c-0.401,0.401-0.68,0.664-0.836,0.789l-1.313,1.055
			l-1.164-1.453l3.68-2.93h1.984V87.607z"/>
		<path fill="#FFFFFF" d="M217.435,87.607h-7.984v-1.68l2.867-2.898c0.849-0.87,1.403-1.473,1.664-1.809s0.448-0.647,0.563-0.934
			c0.114-0.286,0.172-0.583,0.172-0.891c0-0.458-0.126-0.799-0.379-1.023c-0.253-0.224-0.59-0.336-1.012-0.336
			c-0.442,0-0.872,0.102-1.289,0.305s-0.852,0.492-1.305,0.867l-1.313-1.555c0.563-0.479,1.028-0.817,1.398-1.016
			c0.37-0.198,0.773-0.35,1.211-0.457c0.438-0.106,0.927-0.16,1.469-0.16c0.714,0,1.344,0.13,1.891,0.391
			c0.547,0.261,0.972,0.625,1.273,1.094s0.453,1.005,0.453,1.609c0,0.526-0.093,1.02-0.277,1.48s-0.472,0.934-0.859,1.418
			s-1.071,1.175-2.051,2.07l-1.469,1.383v0.109h4.977V87.607z"/>
		<path fill="#FFFFFF" d="M223.865,79.591c0,1.198-0.231,2.098-0.695,2.699s-1.144,0.902-2.039,0.902
			c-0.859,0-1.523-0.309-1.992-0.926s-0.703-1.509-0.703-2.676c0-2.38,0.898-3.57,2.695-3.57c0.88,0,1.556,0.309,2.027,0.926
			S223.865,78.446,223.865,79.591z M220.404,79.607c0,0.662,0.059,1.155,0.176,1.48c0.117,0.326,0.306,0.488,0.566,0.488
			c0.5,0,0.75-0.656,0.75-1.969c0-1.302-0.25-1.953-0.75-1.953c-0.261,0-0.449,0.16-0.566,0.48S220.404,78.946,220.404,79.607z
			 M229.24,76.185l-6.336,11.422h-1.875l6.336-11.422H229.24z M231.865,84.154c0,1.193-0.231,2.09-0.695,2.691
			s-1.144,0.902-2.039,0.902c-0.859,0-1.523-0.309-1.992-0.926s-0.703-1.506-0.703-2.668c0-2.38,0.898-3.57,2.695-3.57
			c0.88,0,1.556,0.309,2.027,0.926S231.865,83.008,231.865,84.154z M228.404,84.169c0,0.662,0.059,1.155,0.176,1.48
			c0.117,0.326,0.306,0.488,0.566,0.488c0.5,0,0.75-0.656,0.75-1.969c0-1.302-0.25-1.953-0.75-1.953c-0.261,0-0.449,0.16-0.566,0.48
			S228.404,83.508,228.404,84.169z"/>
	</g>
	<g>
		<path fill="#FFFFFF" d="M250.248,87.607h-2.414v-6.609l0.023-1.086l0.039-1.188c-0.4,0.401-0.68,0.664-0.836,0.789l-1.313,1.055
			l-1.164-1.453l3.68-2.93h1.984V87.607z"/>
		<path fill="#FFFFFF" d="M259.381,87.607h-2.414v-6.609l0.023-1.086l0.039-1.188c-0.4,0.401-0.68,0.664-0.836,0.789l-1.313,1.055
			l-1.164-1.453l3.68-2.93h1.984V87.607z"/>
		<path fill="#FFFFFF" d="M267.826,79.591c0,1.198-0.23,2.098-0.695,2.699c-0.463,0.602-1.143,0.902-2.039,0.902
			c-0.859,0-1.523-0.309-1.992-0.926s-0.703-1.509-0.703-2.676c0-2.38,0.898-3.57,2.695-3.57c0.881,0,1.557,0.309,2.027,0.926
			C267.592,77.564,267.826,78.446,267.826,79.591z M264.365,79.607c0,0.662,0.059,1.155,0.176,1.48
			c0.117,0.326,0.307,0.488,0.566,0.488c0.5,0,0.75-0.656,0.75-1.969c0-1.302-0.25-1.953-0.75-1.953c-0.26,0-0.449,0.16-0.566,0.48
			S264.365,78.946,264.365,79.607z M273.201,76.185l-6.336,11.422h-1.875l6.336-11.422H273.201z M275.826,84.154
			c0,1.193-0.23,2.09-0.695,2.691c-0.463,0.602-1.143,0.902-2.039,0.902c-0.859,0-1.523-0.309-1.992-0.926s-0.703-1.506-0.703-2.668
			c0-2.38,0.898-3.57,2.695-3.57c0.881,0,1.557,0.309,2.027,0.926C275.592,82.126,275.826,83.008,275.826,84.154z M272.365,84.169
			c0,0.662,0.059,1.155,0.176,1.48c0.117,0.326,0.307,0.488,0.566,0.488c0.5,0,0.75-0.656,0.75-1.969c0-1.302-0.25-1.953-0.75-1.953
			c-0.26,0-0.449,0.16-0.566,0.48S272.365,83.508,272.365,84.169z"/>
	</g>
	<g>
		<path fill="#003333" d="M348.74,78.74c0,0.714-0.217,1.32-0.648,1.82c-0.434,0.5-1.039,0.844-1.82,1.031v0.047
			c0.922,0.115,1.619,0.395,2.094,0.84c0.473,0.445,0.711,1.046,0.711,1.801c0,1.099-0.398,1.955-1.195,2.566
			c-0.797,0.612-1.936,0.918-3.414,0.918c-1.24,0-2.34-0.206-3.297-0.617v-2.055c0.441,0.224,0.93,0.406,1.461,0.547
			s1.057,0.211,1.578,0.211c0.797,0,1.385-0.135,1.766-0.406c0.379-0.271,0.57-0.706,0.57-1.305c0-0.536-0.219-0.917-0.656-1.141
			c-0.438-0.224-1.137-0.336-2.094-0.336h-0.867V80.81h0.883c0.885,0,1.531-0.116,1.941-0.348c0.408-0.231,0.613-0.629,0.613-1.191
			c0-0.864-0.543-1.297-1.625-1.297c-0.375,0-0.758,0.063-1.145,0.188c-0.389,0.125-0.82,0.341-1.293,0.648l-1.117-1.664
			c1.041-0.75,2.283-1.125,3.727-1.125c1.182,0,2.115,0.24,2.801,0.719C348.397,77.219,348.74,77.886,348.74,78.74z"/>
		<path fill="#003333" d="M351.467,87.607l4.289-9.375h-5.633v-2.031h8.195v1.516l-4.32,9.891H351.467z"/>
		<path fill="#003333" d="M364.748,79.591c0,1.198-0.232,2.098-0.695,2.699c-0.465,0.602-1.145,0.902-2.039,0.902
			c-0.859,0-1.523-0.309-1.992-0.926s-0.703-1.509-0.703-2.676c0-2.38,0.898-3.57,2.695-3.57c0.879,0,1.555,0.309,2.027,0.926
			C364.512,77.564,364.748,78.446,364.748,79.591z M361.287,79.607c0,0.662,0.059,1.155,0.176,1.48
			c0.117,0.326,0.305,0.488,0.566,0.488c0.5,0,0.75-0.656,0.75-1.969c0-1.302-0.25-1.953-0.75-1.953c-0.262,0-0.449,0.16-0.566,0.48
			S361.287,78.946,361.287,79.607z M370.123,76.185l-6.336,11.422h-1.875l6.336-11.422H370.123z M372.748,84.154
			c0,1.193-0.232,2.09-0.695,2.691c-0.465,0.602-1.145,0.902-2.039,0.902c-0.859,0-1.523-0.309-1.992-0.926
			s-0.703-1.506-0.703-2.668c0-2.38,0.898-3.57,2.695-3.57c0.879,0,1.555,0.309,2.027,0.926
			C372.512,82.126,372.748,83.008,372.748,84.154z M369.287,84.169c0,0.662,0.059,1.155,0.176,1.48
			c0.117,0.326,0.305,0.488,0.566,0.488c0.5,0,0.75-0.656,0.75-1.969c0-1.302-0.25-1.953-0.75-1.953c-0.262,0-0.449,0.16-0.566,0.48
			S369.287,83.508,369.287,84.169z"/>
	</g>
	<line fill="none" stroke="#333333" stroke-width="0.5" stroke-miterlimit="10" x1="30.883" y1="145.203" x2="30.883" y2="19.535"/>
	
		<line fill="none" stroke="#333333" stroke-width="0.5" stroke-miterlimit="10" x1="30.883" y1="139.537" x2="432.43" y2="139.537"/>
</g>
</svg>
