<?xml version="1.0" encoding="utf-8"?>
<!-- Generator: Adobe Illustrator 16.0.0, SVG Export Plug-In . SVG Version: 6.00 Build 0)  -->
<!DOCTYPE svg PUBLIC "-//W3C//DTD SVG 1.1//EN" "http://www.w3.org/Graphics/SVG/1.1/DTD/svg11.dtd">
<svg version="1.1" id="Capa_1" xmlns="http://www.w3.org/2000/svg" xmlns:xlink="http://www.w3.org/1999/xlink" x="0px" y="0px"
	 width="477px" height="198.425px" viewBox="0 0 477 198.425" enable-background="new 0 0 477 198.425" xml:space="preserve">
<rect x="31.12" y="19.535" fill="#F0F0F0" width="401.177" height="120.001"/>
<g>
	<line fill="none" stroke="#FFFFFF" stroke-width="2" stroke-miterlimit="10" x1="231.331" y1="139.537" x2="231.331" y2="19.539"/>
	<line fill="none" stroke="#FFFFFF" stroke-width="2" stroke-miterlimit="10" x1="131.488" y1="139.537" x2="131.488" y2="19.539"/>
	<line fill="none" stroke="#FFFFFF" stroke-width="2" stroke-miterlimit="10" x1="331.586" y1="139.537" x2="331.586" y2="19.374"/>
</g>
<g id="Capa_1_1_">
</g>
<line fill="none" stroke="#333333" stroke-width="0.5" stroke-miterlimit="10" x1="31.12" y1="139.537" x2="432.576" y2="139.537"/>
<line fill="none" stroke="#333333" stroke-width="0.5" stroke-miterlimit="10" x1="231.331" y1="145.203" x2="231.331" y2="139.537"/>
<g>
	<path fill="#666666" d="M23.622,151.57c0-1.488,0.229-2.598,0.694-3.318c0.471-0.721,1.183-1.082,2.139-1.082
		c0.929,0,1.634,0.377,2.111,1.129c0.48,0.758,0.728,1.85,0.728,3.273c0,1.479-0.232,2.588-0.699,3.316
		c-0.467,0.73-1.18,1.098-2.14,1.098c-0.93,0-1.628-0.375-2.11-1.121C23.865,154.115,23.622,153.018,23.622,151.57z M24.618,151.57
		c0,1.244,0.146,2.148,0.438,2.717c0.293,0.566,0.759,0.854,1.397,0.854c0.646,0,1.111-0.287,1.402-0.86
		c0.291-0.572,0.438-1.48,0.438-2.701c0-1.229-0.146-2.127-0.438-2.697c-0.292-0.569-0.759-0.854-1.402-0.854
		c-0.645,0-1.104,0.279-1.397,0.847C24.765,149.425,24.618,150.328,24.618,151.57z"/>
	<path fill="#666666" d="M30.495,149.854c0-0.886,0.145-1.554,0.433-2.002c0.289-0.446,0.717-0.672,1.281-0.672
		c0.563,0,0.997,0.229,1.3,0.694c0.305,0.465,0.455,1.125,0.455,1.979c0,0.895-0.147,1.564-0.445,2.021
		c-0.298,0.455-0.729,0.685-1.31,0.685c-0.542,0-0.963-0.231-1.269-0.697C30.646,151.396,30.495,150.727,30.495,149.854z
		 M31.286,149.854c0,0.666,0.067,1.164,0.217,1.496c0.146,0.334,0.38,0.5,0.706,0.5c0.644,0,0.964-0.666,0.964-1.996
		c0-1.326-0.32-1.987-0.964-1.987c-0.325,0-0.563,0.164-0.706,0.493C31.36,148.689,31.286,149.188,31.286,149.854z M32.01,155.869
		l4.739-8.566h0.859l-4.734,8.566H32.01z M35.641,153.289c0-0.887,0.146-1.555,0.438-2.002c0.29-0.449,0.718-0.676,1.281-0.676
		c0.557,0,0.981,0.229,1.292,0.688c0.313,0.459,0.468,1.121,0.468,1.988c0,0.887-0.148,1.562-0.446,2.014
		c-0.297,0.455-0.732,0.688-1.313,0.688c-0.552,0-0.978-0.23-1.271-0.693C35.788,154.824,35.641,154.158,35.641,153.289z
		 M36.432,153.289c0,0.668,0.071,1.166,0.217,1.494c0.146,0.328,0.387,0.492,0.711,0.492c0.329,0,0.572-0.16,0.729-0.486
		c0.157-0.324,0.235-0.824,0.235-1.5c0-0.666-0.078-1.162-0.235-1.479c-0.155-0.322-0.398-0.479-0.729-0.479
		s-0.563,0.158-0.711,0.479C36.503,152.126,36.432,152.623,36.432,153.289z"/>
</g>
<g>
	<path fill="#666666" d="M222.367,155.518v-0.938c0.271,0.174,0.607,0.313,1.02,0.412c0.406,0.098,0.808,0.146,1.201,0.146
		c0.688,0,1.222-0.16,1.604-0.48c0.386-0.324,0.57-0.791,0.57-1.402c0-1.189-0.729-1.787-2.199-1.787
		c-0.371,0-0.867,0.059-1.484,0.17l-0.509-0.32l0.325-4.008h4.266v0.895h-3.435l-0.217,2.574c0.449-0.08,0.896-0.121,1.342-0.121
		c0.903,0,1.613,0.225,2.132,0.666c0.521,0.443,0.776,1.055,0.776,1.824c0,0.891-0.282,1.584-0.847,2.09
		c-0.565,0.508-1.348,0.76-2.335,0.76C223.612,155.986,222.874,155.83,222.367,155.518z"/>
	<path fill="#666666" d="M229.046,151.57c0-1.488,0.229-2.598,0.699-3.318c0.466-0.721,1.178-1.082,2.134-1.082
		c0.929,0,1.634,0.377,2.116,1.129c0.479,0.758,0.723,1.85,0.723,3.273c0,1.479-0.232,2.588-0.699,3.316
		c-0.467,0.73-1.18,1.098-2.14,1.098c-0.925,0-1.628-0.375-2.11-1.121C229.287,154.115,229.046,153.018,229.046,151.57z
		 M230.042,151.57c0,1.244,0.146,2.148,0.438,2.717c0.293,0.566,0.765,0.854,1.398,0.854c0.646,0,1.116-0.287,1.407-0.86
		c0.291-0.572,0.436-1.48,0.436-2.701c0-1.229-0.146-2.127-0.436-2.697c-0.291-0.569-0.764-0.854-1.407-0.854
		c-0.645,0-1.105,0.279-1.398,0.847C230.188,149.425,230.042,150.328,230.042,151.57z"/>
	<path fill="#666666" d="M235.919,149.854c0-0.886,0.144-1.554,0.433-2.002c0.289-0.446,0.717-0.672,1.281-0.672
		c0.563,0,0.997,0.229,1.3,0.694c0.305,0.465,0.455,1.125,0.455,1.979c0,0.895-0.146,1.564-0.445,2.021
		c-0.298,0.455-0.729,0.685-1.31,0.685c-0.542,0-0.963-0.231-1.264-0.697C236.07,151.396,235.919,150.727,235.919,149.854z
		 M236.71,149.854c0,0.666,0.072,1.164,0.217,1.496c0.146,0.334,0.38,0.5,0.706,0.5c0.644,0,0.964-0.666,0.964-1.996
		c0-1.326-0.32-1.987-0.964-1.987c-0.325,0-0.563,0.164-0.706,0.493S236.71,149.188,236.71,149.854z M237.433,155.869l4.738-8.566
		h0.865l-4.74,8.566H237.433z M241.064,153.289c0-0.887,0.146-1.555,0.438-2.002c0.29-0.449,0.719-0.676,1.285-0.676
		c0.553,0,0.979,0.229,1.292,0.688c0.31,0.459,0.464,1.121,0.464,1.988c0,0.887-0.148,1.562-0.447,2.014
		c-0.297,0.455-0.729,0.688-1.309,0.688c-0.556,0-0.979-0.23-1.273-0.693C241.213,154.824,241.064,154.158,241.064,153.289z
		 M241.855,153.289c0,0.668,0.072,1.166,0.223,1.494c0.145,0.328,0.383,0.492,0.711,0.492c0.326,0,0.566-0.16,0.729-0.486
		c0.158-0.324,0.236-0.824,0.236-1.5c0-0.666-0.078-1.162-0.236-1.479c-0.156-0.322-0.396-0.479-0.729-0.479
		c-0.328,0-0.566,0.158-0.711,0.479C241.928,152.126,241.855,152.623,241.855,153.289z"/>
</g>
<g>
	<path fill="#666666" d="M421.252,149.055l2.27-1.753h0.842v8.566h-0.974v-6.104c0-0.509,0.018-0.986,0.048-1.438
		c-0.082,0.082-0.174,0.168-0.274,0.258c-0.102,0.09-0.563,0.471-1.396,1.146L421.252,149.055z"/>
	<path fill="#666666" d="M427.608,151.57c0-1.488,0.233-2.598,0.699-3.318c0.466-0.719,1.178-1.082,2.134-1.082
		c0.93,0,1.635,0.377,2.116,1.129c0.479,0.758,0.724,1.85,0.724,3.273c0,1.479-0.229,2.588-0.699,3.316
		c-0.467,0.73-1.18,1.098-2.14,1.098c-0.926,0-1.629-0.375-2.11-1.121C427.849,154.115,427.608,153.018,427.608,151.57z
		 M428.604,151.57c0,1.244,0.146,2.148,0.438,2.717c0.297,0.566,0.763,0.854,1.396,0.854c0.647,0,1.116-0.287,1.406-0.86
		c0.291-0.572,0.438-1.48,0.438-2.701c0-1.229-0.146-2.127-0.438-2.697c-0.29-0.569-0.759-0.854-1.406-0.854
		c-0.64,0-1.104,0.279-1.396,0.847C428.75,149.425,428.604,150.328,428.604,151.57z"/>
	<path fill="#666666" d="M434.47,151.57c0-1.488,0.229-2.598,0.699-3.318c0.466-0.721,1.178-1.082,2.134-1.082
		c0.929,0,1.634,0.377,2.116,1.129c0.479,0.758,0.723,1.85,0.723,3.273c0,1.479-0.232,2.588-0.698,3.316
		c-0.468,0.73-1.181,1.098-2.141,1.098c-0.925,0-1.628-0.375-2.109-1.121C434.711,154.115,434.47,153.018,434.47,151.57z
		 M435.466,151.57c0,1.244,0.146,2.148,0.438,2.717c0.293,0.566,0.759,0.854,1.397,0.854c0.646,0,1.112-0.287,1.401-0.86
		c0.291-0.572,0.438-1.48,0.438-2.701c0-1.229-0.146-2.127-0.438-2.697c-0.289-0.569-0.759-0.854-1.401-0.854
		c-0.644,0-1.104,0.279-1.397,0.847C435.612,149.425,435.466,150.328,435.466,151.57z"/>
	<path fill="#666666" d="M441.343,149.854c0-0.886,0.145-1.554,0.434-2.002c0.288-0.446,0.716-0.672,1.28-0.672
		c0.563,0,0.997,0.229,1.301,0.694s0.454,1.125,0.454,1.979c0,0.895-0.147,1.564-0.445,2.021c-0.297,0.455-0.729,0.685-1.31,0.685
		c-0.543,0-0.963-0.231-1.264-0.697C441.49,151.396,441.343,150.727,441.343,149.854z M442.134,149.854
		c0,0.666,0.067,1.164,0.218,1.496c0.146,0.334,0.381,0.5,0.705,0.5c0.644,0,0.964-0.666,0.964-1.996
		c0-1.326-0.32-1.987-0.964-1.987c-0.324,0-0.563,0.164-0.705,0.493C442.201,148.689,442.134,149.188,442.134,149.854z
		 M442.858,155.869l4.737-8.566h0.864l-4.739,8.566H442.858z M446.488,153.289c0-0.887,0.146-1.555,0.438-2.002
		c0.289-0.449,0.718-0.676,1.285-0.676c0.552,0,0.979,0.229,1.291,0.688c0.31,0.459,0.464,1.121,0.464,1.988
		c0,0.887-0.148,1.562-0.446,2.014c-0.297,0.455-0.732,0.688-1.309,0.688c-0.557,0-0.979-0.23-1.273-0.693
		C446.636,154.824,446.488,154.158,446.488,153.289z M447.279,153.289c0,0.668,0.071,1.166,0.218,1.494
		c0.147,0.328,0.387,0.492,0.716,0.492c0.324,0,0.567-0.16,0.729-0.486c0.157-0.324,0.235-0.824,0.235-1.5
		c0-0.666-0.078-1.162-0.235-1.479c-0.155-0.322-0.397-0.479-0.729-0.479s-0.566,0.158-0.716,0.479
		C447.35,152.126,447.279,152.623,447.279,153.289z"/>
</g>
<rect x="31.12" y="39.598" fill="#449FA2" width="210.859" height="87.048"/>
<rect x="241.985" y="39.598" fill="#F6A400" width="95.097" height="87.048"/>
<rect x="343.431" y="39.598" fill="#CAE4E4" width="88.866" height="87.048"/>
<rect x="337.076" y="39.598" fill="#58585A" width="6.634" height="87.048"/>
<line fill="none" stroke="#333333" stroke-width="0.5" stroke-miterlimit="10" x1="31.12" y1="145.203" x2="31.12" y2="19.535"/>
<path fill="#FFFFFF" d="M280.706,88.368h-7.984v-1.68l2.867-2.898c0.85-0.87,1.404-1.473,1.664-1.809
	c0.262-0.336,0.449-0.647,0.563-0.934c0.115-0.286,0.172-0.583,0.172-0.891c0-0.458-0.125-0.8-0.379-1.023
	c-0.252-0.224-0.59-0.336-1.012-0.336c-0.441,0-0.871,0.102-1.289,0.305c-0.416,0.203-0.852,0.492-1.305,0.867l-1.313-1.555
	c0.563-0.479,1.029-0.817,1.398-1.016c0.371-0.198,0.771-0.351,1.211-0.457c0.438-0.106,0.928-0.16,1.469-0.16
	c0.715,0,1.344,0.13,1.896,0.391c0.547,0.261,0.973,0.625,1.271,1.094c0.303,0.469,0.453,1.005,0.453,1.609
	c0,0.526-0.092,1.02-0.277,1.48c-0.184,0.461-0.471,0.934-0.854,1.418c-0.391,0.484-1.07,1.175-2.051,2.07l-1.474,1.383v0.109h4.979
	L280.706,88.368L280.706,88.368z"/>
<path fill="#FFFFFF" d="M290.097,86.001h-1.375v2.367h-2.359v-2.367h-4.875v-1.68l5.013-7.375h2.227v7.18h1.375L290.097,86.001
	L290.097,86.001z M286.363,84.126v-1.938c0-0.323,0.019-0.792,0.039-1.406c0.027-0.614,0.052-0.972,0.063-1.07h-0.063
	c-0.188,0.427-0.424,0.844-0.69,1.25l-2.099,3.164H286.363z"/>
<path fill="#FFFFFF" d="M296.269,80.353c0,1.198-0.229,2.098-0.69,2.699c-0.468,0.602-1.146,0.902-2.039,0.902
	c-0.859,0-1.523-0.309-1.992-0.926c-0.469-0.617-0.703-1.509-0.703-2.676c0-2.38,0.896-3.57,2.695-3.57
	c0.881,0,1.557,0.309,2.022,0.926C296.034,78.325,296.269,79.207,296.269,80.353z M292.808,80.368c0,0.661,0.063,1.155,0.176,1.48
	c0.117,0.325,0.312,0.488,0.566,0.488c0.5,0,0.75-0.656,0.75-1.969c0-1.302-0.25-1.953-0.75-1.953c-0.26,0-0.449,0.16-0.566,0.48
	C292.867,79.214,292.808,79.707,292.808,80.368z M301.644,76.946l-6.336,11.422h-1.875l6.336-11.422H301.644z M304.269,84.915
	c0,1.192-0.23,2.09-0.695,2.691c-0.463,0.602-1.143,0.902-2.038,0.902c-0.855,0-1.521-0.309-1.988-0.926
	c-0.473-0.617-0.703-1.507-0.703-2.668c0-2.38,0.896-3.57,2.691-3.57c0.884,0,1.561,0.309,2.026,0.926
	C304.031,82.888,304.269,83.77,304.269,84.915z M300.808,84.931c0,0.661,0.06,1.155,0.176,1.48c0.117,0.325,0.312,0.488,0.566,0.488
	c0.5,0,0.75-0.656,0.75-1.969c0-1.302-0.25-1.953-0.75-1.953c-0.264,0-0.449,0.16-0.566,0.48S300.808,84.27,300.808,84.931z"/>
<path fill="#003333" d="M384.865,88.368h-7.979v-1.68l2.867-2.898c0.85-0.87,1.399-1.473,1.659-1.809
	c0.267-0.336,0.449-0.647,0.563-0.934c0.115-0.286,0.172-0.583,0.172-0.891c0-0.458-0.125-0.8-0.379-1.023
	c-0.252-0.224-0.59-0.336-1.012-0.336c-0.441,0-0.871,0.102-1.289,0.305c-0.416,0.203-0.854,0.492-1.31,0.867l-1.313-1.555
	c0.563-0.479,1.028-0.817,1.396-1.016c0.37-0.198,0.772-0.351,1.212-0.457c0.438-0.106,0.931-0.16,1.472-0.16
	c0.715,0,1.344,0.13,1.891,0.391c0.547,0.261,0.975,0.625,1.273,1.094c0.303,0.469,0.453,1.005,0.453,1.609
	c0,0.526-0.097,1.02-0.277,1.48c-0.187,0.461-0.471,0.934-0.859,1.418c-0.387,0.484-1.065,1.175-2.051,2.07l-1.469,1.383v0.109
	h4.977L384.865,88.368L384.865,88.368z"/>
<path fill="#003333" d="M394.001,88.368h-7.984v-1.68l2.867-2.898c0.85-0.87,1.399-1.473,1.664-1.809
	c0.262-0.336,0.444-0.647,0.563-0.934c0.115-0.286,0.172-0.583,0.172-0.891c0-0.458-0.125-0.8-0.379-1.023
	c-0.252-0.224-0.59-0.336-1.012-0.336c-0.441,0-0.871,0.102-1.289,0.305c-0.416,0.203-0.852,0.492-1.305,0.867l-1.313-1.555
	c0.563-0.479,1.029-0.817,1.398-1.016c0.371-0.198,0.771-0.351,1.211-0.457c0.438-0.106,0.928-0.16,1.469-0.16
	c0.715,0,1.344,0.13,1.891,0.391c0.552,0.261,0.978,0.625,1.273,1.094c0.303,0.469,0.453,1.005,0.453,1.609
	c0,0.526-0.092,1.02-0.277,1.48c-0.184,0.461-0.471,0.934-0.854,1.418c-0.391,0.484-1.07,1.175-2.056,2.07l-1.469,1.383v0.109h4.979
	L394.001,88.368L394.001,88.368z"/>
<path fill="#003333" d="M400.431,80.353c0,1.198-0.23,2.098-0.695,2.699c-0.463,0.602-1.143,0.902-2.039,0.902
	c-0.854,0-1.521-0.309-1.992-0.926c-0.469-0.617-0.698-1.509-0.698-2.676c0-2.38,0.896-3.57,2.69-3.57
	c0.881,0,1.562,0.309,2.027,0.926C400.197,78.325,400.431,79.207,400.431,80.353z M396.97,80.368c0,0.661,0.059,1.155,0.176,1.48
	c0.117,0.325,0.307,0.488,0.566,0.488c0.5,0,0.75-0.656,0.75-1.969c0-1.302-0.25-1.953-0.75-1.953c-0.265,0-0.449,0.16-0.566,0.48
	S396.97,79.707,396.97,80.368z M405.806,76.946l-6.336,11.422h-1.875l6.336-11.422H405.806z M408.431,84.915
	c0,1.192-0.23,2.09-0.695,2.691c-0.463,0.602-1.143,0.902-2.039,0.902c-0.854,0-1.521-0.309-1.992-0.926
	c-0.469-0.617-0.698-1.507-0.698-2.668c0-2.38,0.896-3.57,2.69-3.57c0.881,0,1.562,0.309,2.027,0.926
	C408.197,82.888,408.431,83.77,408.431,84.915z M404.97,84.931c0,0.661,0.059,1.155,0.176,1.48c0.117,0.325,0.307,0.488,0.566,0.488
	c0.5,0,0.75-0.656,0.75-1.969c0-1.302-0.25-1.953-0.75-1.953c-0.265,0-0.449,0.16-0.566,0.48S404.97,84.27,404.97,84.931z"/>
<path fill="#FFFFFF" d="M335.783,88.368h-7.979v-1.68l2.867-2.898c0.85-0.87,1.399-1.473,1.664-1.809
	c0.262-0.336,0.444-0.647,0.563-0.934c0.115-0.286,0.172-0.583,0.172-0.891c0-0.458-0.125-0.8-0.379-1.023
	c-0.252-0.224-0.59-0.336-1.012-0.336c-0.441,0-0.871,0.102-1.289,0.305c-0.416,0.203-0.854,0.492-1.305,0.867l-1.313-1.555
	c0.563-0.479,1.029-0.817,1.398-1.016c0.371-0.198,0.771-0.351,1.211-0.457c0.438-0.106,0.928-0.16,1.469-0.16
	c0.715,0,1.344,0.13,1.891,0.391c0.547,0.261,0.978,0.625,1.273,1.094c0.303,0.469,0.453,1.005,0.453,1.609
	c0,0.526-0.092,1.02-0.277,1.48c-0.184,0.461-0.471,0.934-0.859,1.418c-0.387,0.484-1.065,1.175-2.051,2.07l-1.469,1.383v0.109
	h4.977L335.783,88.368L335.783,88.368z"/>
<path fill="#FFFFFF" d="M342.218,80.353c0,1.198-0.23,2.098-0.695,2.699c-0.463,0.602-1.143,0.902-2.039,0.902
	c-0.859,0-1.521-0.309-1.992-0.926c-0.469-0.617-0.703-1.509-0.703-2.676c0-2.38,0.898-3.57,2.695-3.57
	c0.881,0,1.557,0.309,2.027,0.926C341.984,78.325,342.218,79.207,342.218,80.353z M338.757,80.368c0,0.661,0.059,1.155,0.176,1.48
	c0.117,0.325,0.307,0.488,0.563,0.488c0.5,0,0.75-0.656,0.75-1.969c0-1.302-0.25-1.953-0.75-1.953c-0.261,0-0.445,0.16-0.563,0.48
	S338.757,79.707,338.757,80.368z M347.593,76.946l-6.336,11.422h-1.875l6.336-11.422H347.593z M350.218,84.915
	c0,1.192-0.23,2.09-0.695,2.691c-0.463,0.602-1.143,0.902-2.039,0.902c-0.859,0-1.521-0.309-1.992-0.926
	c-0.469-0.617-0.703-1.507-0.703-2.668c0-2.38,0.898-3.57,2.695-3.57c0.881,0,1.557,0.309,2.027,0.926
	C349.984,82.888,350.218,83.77,350.218,84.915z M346.757,84.931c0,0.661,0.059,1.155,0.176,1.48
	c0.117,0.325,0.307,0.488,0.563,0.488c0.5,0,0.75-0.656,0.75-1.969c0-1.302-0.25-1.953-0.75-1.953c-0.261,0-0.445,0.16-0.563,0.48
	S346.757,84.27,346.757,84.931z"/>
<path fill="#FFFFFF" d="M134.872,81.071c1.104,0,1.979,0.31,2.637,0.93s0.979,1.469,0.979,2.547c0,1.276-0.394,2.258-1.18,2.945
	s-1.911,1.031-3.375,1.031c-1.271,0-2.297-0.206-3.078-0.617v-2.086c0.411,0.219,0.896,0.397,1.438,0.535s1.063,0.207,1.555,0.207
	c1.475,0,2.211-0.604,2.211-1.813c0-1.151-0.763-1.727-2.289-1.727c-0.271,0-0.581,0.027-0.914,0.082s-0.604,0.113-0.813,0.176
	l-0.961-0.516l0.43-5.82h6.195v2.047h-4.078l-0.211,2.242l0.271-0.055C134.01,81.107,134.404,81.071,134.872,81.071z"/>
<path fill="#FFFFFF" d="M147.833,88.368h-7.984v-1.68l2.867-2.898c0.849-0.87,1.403-1.473,1.664-1.809s0.448-0.647,0.563-0.934
	c0.115-0.287,0.177-0.583,0.177-0.891c0-0.458-0.126-0.8-0.384-1.023c-0.253-0.223-0.59-0.336-1.012-0.336
	c-0.438,0-0.872,0.102-1.289,0.305s-0.852,0.492-1.305,0.867l-1.313-1.555c0.563-0.479,1.028-0.817,1.398-1.016
	c0.37-0.199,0.771-0.351,1.211-0.457s0.927-0.16,1.469-0.16c0.714,0,1.349,0.13,1.896,0.391c0.547,0.261,0.972,0.625,1.271,1.094
	c0.301,0.469,0.453,1.005,0.453,1.609c0,0.526-0.093,1.02-0.277,1.48c-0.184,0.46-0.472,0.934-0.854,1.418s-1.071,1.175-2.051,2.07
	l-1.474,1.383v0.109h4.979L147.833,88.368L147.833,88.368z"/>
<path fill="#FFFFFF" d="M154.263,80.353c0,1.198-0.229,2.098-0.695,2.699c-0.464,0.601-1.144,0.902-2.039,0.902
	c-0.854,0-1.521-0.309-1.987-0.926c-0.474-0.617-0.703-1.509-0.703-2.676c0-2.38,0.896-3.57,2.69-3.57
	c0.885,0,1.561,0.309,2.027,0.926S154.263,79.207,154.263,80.353z M150.802,80.368c0,0.661,0.059,1.155,0.176,1.48
	c0.117,0.325,0.311,0.488,0.566,0.488c0.5,0,0.75-0.656,0.75-1.969c0-1.302-0.25-1.953-0.75-1.953c-0.261,0-0.449,0.16-0.566,0.48
	S150.802,79.707,150.802,80.368z M159.638,76.946l-6.336,11.422h-1.875l6.336-11.422H159.638z M162.263,84.915
	c0,1.192-0.229,2.09-0.695,2.691c-0.464,0.601-1.144,0.902-2.039,0.902c-0.854,0-1.521-0.309-1.987-0.926
	c-0.474-0.617-0.703-1.507-0.703-2.668c0-2.38,0.896-3.57,2.69-3.57c0.885,0,1.561,0.309,2.027,0.926S162.263,83.77,162.263,84.915z
	 M158.802,84.931c0,0.661,0.059,1.155,0.176,1.48c0.117,0.325,0.311,0.488,0.566,0.488c0.5,0,0.75-0.656,0.75-1.969
	c0-1.302-0.25-1.953-0.75-1.953c-0.261,0-0.449,0.16-0.566,0.48S158.802,84.27,158.802,84.931z"/>
<line fill="none" stroke="#333333" stroke-width="0.5" stroke-miterlimit="10" x1="131.488" y1="145.203" x2="131.488" y2="139.537"/>
<g id="more">
	<circle id="more3" fill="none" stroke="#67ABAD" stroke-miterlimit="10" cx="465.515" cy="12.711" r="9.439"/>
	<rect id="more2" x="464.816" y="8.679" fill="#67ABAD" width="1.292" height="8.122"/>
	<rect id="more1" x="461.401" y="12.094" fill="#67ABAD" width="8.122" height="1.292"/>
</g>
<g>
	<g>
		<rect x="22.99" y="175.564" fill="#449FA2" width="14.217" height="14.217"/>
		<g>
			<path fill="#666666" d="M42.717,182.66c0-1.029,0.188-1.932,0.57-2.707c0.381-0.771,0.936-1.369,1.662-1.789
				c0.725-0.418,1.576-0.629,2.563-0.629c1.049,0,1.965,0.191,2.748,0.574l-0.492,0.998c-0.756-0.355-1.516-0.533-2.271-0.533
				c-1.104,0-1.965,0.365-2.604,1.098c-0.635,0.73-0.953,1.73-0.953,3.002c0,1.312,0.313,2.316,0.921,3.027
				c0.612,0.713,1.485,1.07,2.62,1.07c0.697,0,1.492-0.125,2.393-0.377v1.021c-0.691,0.262-1.554,0.396-2.563,0.396
				c-1.475,0-2.604-0.446-3.396-1.343C43.115,185.576,42.717,184.307,42.717,182.66z"/>
			<path fill="#666666" d="M51.336,185.609c0-1.51,1.213-2.301,3.637-2.373l1.271-0.041v-0.471c0-0.598-0.125-1.035-0.379-1.318
				c-0.258-0.283-0.654-0.426-1.217-0.426c-0.623,0-1.322,0.191-2.109,0.582l-0.354-0.871c0.369-0.197,0.771-0.354,1.213-0.465
				c0.438-0.111,0.881-0.168,1.322-0.168c0.896,0,1.555,0.195,1.982,0.594c0.43,0.396,0.646,1.033,0.646,1.908v5.109h-0.84
				l-0.229-1.053h-0.05c-0.373,0.463-0.746,0.774-1.117,0.938c-0.363,0.163-0.832,0.243-1.389,0.243
				c-0.746,0-1.33-0.188-1.754-0.569C51.547,186.855,51.336,186.314,51.336,185.609z M52.541,185.623
				c0,0.412,0.123,0.729,0.371,0.941s0.594,0.32,1.041,0.32c0.705,0,1.258-0.191,1.654-0.584c0.404-0.389,0.604-0.934,0.604-1.635
				v-0.685l-1.133,0.052c-0.898,0.028-1.551,0.174-1.947,0.424C52.74,184.708,52.541,185.098,52.541,185.623z"/>
			<path fill="#666666" d="M59.683,187.673v-7.491h0.924l0.188,1.012h0.057c0.23-0.362,0.563-0.646,0.979-0.849
				c0.42-0.2,0.887-0.301,1.396-0.301c0.9,0,1.582,0.217,2.035,0.648c0.455,0.438,0.688,1.135,0.688,2.092v4.889h-1.14v-4.854
				c0-0.612-0.141-1.067-0.418-1.37c-0.271-0.302-0.713-0.451-1.307-0.451c-0.781,0-1.355,0.211-1.724,0.637
				c-0.364,0.432-0.552,1.125-0.552,2.105v3.938H59.68L59.683,187.673L59.683,187.673z"/>
			<path fill="#666666" d="M67.859,183.977c0-1.254,0.307-2.224,0.898-2.906c0.6-0.685,1.457-1.024,2.574-1.024
				c0.354,0,0.721,0.039,1.08,0.117c0.354,0.076,0.643,0.168,0.848,0.272l-0.35,0.963c-0.25-0.103-0.523-0.185-0.82-0.25
				c-0.295-0.063-0.557-0.101-0.785-0.101c-1.521,0-2.283,0.974-2.283,2.912c0,0.922,0.188,1.627,0.563,2.119
				s0.922,0.734,1.646,0.734c0.623,0,1.27-0.135,1.92-0.398v1.004c-0.502,0.263-1.133,0.392-1.895,0.392
				c-1.084,0-1.922-0.334-2.512-1.002C68.154,186.143,67.859,185.197,67.859,183.977z"/>
			<path fill="#666666" d="M74.525,183.988c0-1.207,0.295-2.166,0.895-2.877c0.594-0.711,1.391-1.066,2.391-1.066
				c0.938,0,1.676,0.313,2.221,0.931c0.548,0.612,0.816,1.438,0.816,2.438v0.719H75.69c0.021,0.886,0.246,1.552,0.668,2.002
				c0.422,0.457,1.021,0.689,1.785,0.689c0.803,0,1.603-0.171,2.385-0.507v1.015c-0.396,0.172-0.773,0.297-1.135,0.371
				c-0.354,0.073-0.787,0.11-1.291,0.11c-1.104,0-1.979-0.336-2.615-1.015C74.845,186.123,74.525,185.188,74.525,183.988z
				 M75.713,183.208h3.926c0-0.715-0.16-1.268-0.479-1.646c-0.318-0.381-0.775-0.568-1.369-0.568c-0.604,0-1.084,0.193-1.439,0.588
				C75.988,181.975,75.777,182.518,75.713,183.208z"/>
			<path fill="#666666" d="M82.795,187.673v-7.491h0.924l0.139,1.396h0.063c0.273-0.49,0.607-0.867,1.006-1.134
				c0.395-0.267,0.822-0.397,1.293-0.397c0.332,0,0.633,0.027,0.896,0.084l-0.155,1.063c-0.313-0.065-0.582-0.104-0.82-0.104
				c-0.604,0-1.123,0.246-1.555,0.738c-0.436,0.489-0.646,1.104-0.646,1.836v4.018L82.795,187.673L82.795,187.673z"/>
		</g>
	</g>
	<g>
		<rect x="135.144" y="175.564" fill="#F6A400" width="14.223" height="14.217"/>
		<g>
			<path fill="#666666" d="M154.567,181.294c0-1.028,0.188-1.936,0.568-2.705c0.381-0.772,0.938-1.371,1.661-1.789
				c0.729-0.42,1.582-0.629,2.565-0.629c1.048,0,1.964,0.188,2.748,0.572l-0.492,0.998c-0.756-0.354-1.519-0.531-2.271-0.531
				c-1.098,0-1.965,0.363-2.602,1.097c-0.636,0.729-0.953,1.729-0.953,3.002c0,1.308,0.307,2.315,0.919,3.028
				s1.486,1.068,2.622,1.068c0.696,0,1.492-0.125,2.386-0.381v1.021c-0.688,0.266-1.547,0.396-2.563,0.396
				c-1.478,0-2.604-0.444-3.4-1.342C154.964,184.21,154.567,182.941,154.567,181.294z"/>
			<path fill="#666666" d="M163.652,176.785c0-0.26,0.063-0.449,0.179-0.57c0.118-0.114,0.266-0.182,0.438-0.182
				c0.197,0,0.366,0.063,0.511,0.186c0.146,0.123,0.217,0.314,0.217,0.566c0,0.254-0.07,0.445-0.217,0.572
				c-0.146,0.125-0.313,0.188-0.511,0.188c-0.176,0-0.319-0.063-0.438-0.188C163.711,177.232,163.652,177.041,163.652,176.785z
				 M163.748,186.309v-7.492h1.039v7.492H163.748z"/>
			<path fill="#666666" d="M167.289,186.309v-7.492h0.924l0.139,1.396h0.063c0.276-0.482,0.611-0.859,1.007-1.133
				c0.395-0.267,0.822-0.396,1.292-0.396c0.333,0,0.631,0.026,0.896,0.082l-0.154,1.06c-0.313-0.066-0.583-0.103-0.819-0.103
				c-0.604,0-1.125,0.245-1.556,0.735c-0.434,0.492-0.646,1.104-0.646,1.838v4.017h-1.138L167.289,186.309L167.289,186.309z"/>
			<path fill="#666666" d="M172.306,182.611c0-1.254,0.303-2.223,0.898-2.906c0.6-0.682,1.457-1.021,2.574-1.021
				c0.354,0,0.72,0.039,1.077,0.112c0.357,0.078,0.646,0.17,0.851,0.271l-0.352,0.965c-0.25-0.102-0.521-0.186-0.817-0.25
				s-0.563-0.1-0.785-0.1c-1.521,0-2.283,0.971-2.283,2.91c0,0.922,0.188,1.629,0.56,2.117c0.371,0.492,0.925,0.736,1.648,0.736
				c0.625,0,1.268-0.138,1.921-0.402v1.01c-0.501,0.26-1.132,0.389-1.895,0.389c-1.084,0-1.922-0.334-2.515-1.002
				C172.601,184.777,172.306,183.832,172.306,182.611z"/>
			<path fill="#666666" d="M179.306,183.718v-4.901h1.162v4.86c0,0.609,0.142,1.064,0.416,1.367
				c0.277,0.302,0.712,0.449,1.307,0.449c0.779,0,1.354-0.213,1.719-0.646c0.355-0.434,0.542-1.127,0.542-2.104v-3.938h1.135v7.492
				h-0.923l-0.178-1.006h-0.063c-0.229,0.369-0.555,0.648-0.967,0.85c-0.412,0.195-0.881,0.293-1.408,0.293
				c-0.916,0-1.604-0.217-2.057-0.648C179.534,185.365,179.306,184.669,179.306,183.718z"/>
			<path fill="#666666" d="M187.981,186.309v-10.638h1.138v10.638H187.981z"/>
			<path fill="#666666" d="M190.962,184.244c0-1.51,1.211-2.301,3.635-2.373l1.272-0.041v-0.471c0-0.596-0.126-1.035-0.379-1.316
				c-0.252-0.285-0.655-0.428-1.211-0.428c-0.623,0-1.328,0.193-2.115,0.582l-0.354-0.871c0.369-0.197,0.773-0.354,1.216-0.465
				c0.438-0.111,0.883-0.168,1.32-0.168c0.896,0,1.556,0.197,1.982,0.594c0.431,0.398,0.646,1.033,0.646,1.908v5.113h-0.841
				l-0.227-1.057h-0.061c-0.373,0.465-0.745,0.779-1.113,0.939c-0.368,0.163-0.833,0.245-1.392,0.245
				c-0.746,0-1.331-0.188-1.755-0.567C191.173,185.49,190.962,184.949,190.962,184.244z M192.165,184.259
				c0,0.412,0.124,0.726,0.372,0.939c0.248,0.215,0.596,0.318,1.041,0.318c0.705,0,1.26-0.189,1.661-0.584
				c0.397-0.395,0.604-0.938,0.604-1.641v-0.68l-1.133,0.049c-0.9,0.031-1.551,0.172-1.948,0.422
				C192.365,183.343,192.165,183.732,192.165,184.259z"/>
			<path fill="#666666" d="M198.317,179.697v-0.547l1.07-0.471l0.479-1.604h0.652v1.731h2.178v0.883h-2.178v4.425
				c0,0.446,0.105,0.799,0.319,1.041c0.214,0.237,0.508,0.358,0.882,0.358c0.201,0,0.396-0.021,0.581-0.046
				c0.188-0.028,0.335-0.063,0.444-0.096v0.855c-0.123,0.061-0.305,0.105-0.543,0.146c-0.239,0.039-0.455,0.058-0.646,0.058
				c-1.443,0-2.174-0.765-2.174-2.289v-4.457h-1.069L198.317,179.697L198.317,179.697z"/>
			<path fill="#666666" d="M203.833,182.548c0-1.219,0.305-2.168,0.913-2.85c0.604-0.684,1.454-1.021,2.536-1.021
				c1.045,0,1.875,0.35,2.488,1.045s0.926,1.639,0.926,2.824c0,1.225-0.313,2.18-0.923,2.865c-0.61,0.688-1.46,1.024-2.542,1.024
				c-0.668,0-1.264-0.151-1.776-0.478c-0.521-0.313-0.918-0.768-1.199-1.354C203.973,184.027,203.833,183.339,203.833,182.548z
				 M204.996,182.548c0,0.959,0.188,1.688,0.575,2.191c0.383,0.504,0.941,0.754,1.688,0.754s1.313-0.25,1.693-0.75
				c0.386-0.5,0.579-1.229,0.579-2.195c0-0.955-0.192-1.68-0.579-2.176c-0.389-0.494-0.954-0.742-1.708-0.742
				c-0.743,0-1.312,0.244-1.688,0.729C205.181,180.85,204.996,181.58,204.996,182.548z"/>
			<path fill="#666666" d="M212.707,186.309v-7.492h0.924l0.142,1.396h0.062c0.276-0.482,0.611-0.859,1.007-1.133
				c0.395-0.267,0.822-0.396,1.291-0.396c0.333,0,0.631,0.026,0.896,0.082l-0.154,1.06c-0.313-0.066-0.583-0.103-0.82-0.103
				c-0.604,0-1.124,0.245-1.555,0.735c-0.434,0.492-0.646,1.104-0.646,1.838v4.017h-1.14v-0.004H212.707z"/>
			<path fill="#666666" d="M217.232,178.816h1.22l1.641,4.271c0.36,0.976,0.583,1.679,0.671,2.104h0.058
				c0.062-0.229,0.187-0.629,0.373-1.188c0.188-0.563,0.811-2.291,1.854-5.188h1.217l-3.22,8.531
				c-0.318,0.842-0.689,1.438-1.118,1.795c-0.426,0.354-0.948,0.526-1.565,0.526c-0.35,0-0.688-0.039-1.022-0.115v-0.916
				c0.25,0.056,0.531,0.082,0.841,0.082c0.779,0,1.335-0.438,1.668-1.313l0.417-1.064L217.232,178.816z"/>
		</g>
	</g>
	<g>
		<rect x="397.348" y="175.564" fill="#CAE4E4" width="14.217" height="14.217"/>
		<g>
			<path fill="#666666" d="M417.49,182.906c0-1.631,0.402-2.895,1.203-3.789c0.809-0.896,1.941-1.348,3.418-1.348
				c1.438,0,2.563,0.457,3.363,1.369c0.807,0.912,1.211,2.172,1.211,3.777c0,1.6-0.404,2.854-1.213,3.77
				c-0.813,0.916-1.938,1.373-3.375,1.373c-1.471,0-2.607-0.449-3.406-1.35C417.897,185.813,417.49,184.544,417.49,182.906z
				 M418.729,182.919c0,1.354,0.287,2.383,0.863,3.084s1.414,1.054,2.514,1.054c1.105,0,1.943-0.353,2.508-1.05
				c0.566-0.696,0.854-1.729,0.854-3.088c0-1.354-0.279-2.369-0.85-3.063c-0.563-0.694-1.395-1.043-2.498-1.043
				c-1.103,0-1.943,0.351-2.521,1.052C419.016,180.563,418.729,181.582,418.729,182.919z"/>
			<path fill="#666666" d="M427.758,181.313v-0.547l1.066-0.474l0.48-1.604h0.656v1.733h2.174v0.886h-2.174v4.42
				c0,0.45,0.104,0.799,0.314,1.041c0.217,0.239,0.511,0.358,0.883,0.358c0.199,0,0.396-0.015,0.58-0.045
				c0.188-0.024,0.335-0.063,0.443-0.092v0.855c-0.123,0.061-0.303,0.104-0.543,0.146c-0.238,0.039-0.455,0.061-0.646,0.061
				c-1.445,0-2.176-0.766-2.176-2.288v-4.457h-1.066v0.003L427.758,181.313L427.758,181.313z"/>
			<path fill="#666666" d="M433.692,187.923v-10.637h1.135v3.219c0,0.39-0.018,0.709-0.055,0.965h0.068
				c0.223-0.358,0.541-0.645,0.953-0.852c0.406-0.207,0.883-0.313,1.406-0.313c0.916,0,1.604,0.217,2.063,0.649
				c0.459,0.438,0.688,1.127,0.688,2.076v4.887h-1.135v-4.849c0-0.608-0.139-1.063-0.416-1.364
				c-0.279-0.304-0.715-0.451-1.307-0.451c-0.789,0-1.363,0.215-1.729,0.644c-0.355,0.433-0.543,1.131-0.543,2.104v3.916h-1.135
				L433.692,187.923L433.692,187.923z"/>
			<path fill="#666666" d="M441.865,184.236c0-1.205,0.297-2.166,0.896-2.877c0.594-0.711,1.389-1.064,2.389-1.064
				c0.938,0,1.676,0.313,2.221,0.93c0.546,0.613,0.818,1.438,0.818,2.439v0.719h-5.154c0.023,0.886,0.244,1.551,0.668,2.002
				c0.423,0.457,1.021,0.689,1.783,0.689c0.805,0,1.603-0.171,2.385-0.507v1.015c-0.396,0.172-0.771,0.297-1.135,0.371
				c-0.354,0.073-0.787,0.11-1.291,0.11c-1.104,0-1.977-0.336-2.615-1.015C442.189,186.373,441.865,185.438,441.865,184.236z
				 M443.057,183.458h3.924c0-0.715-0.16-1.27-0.479-1.646c-0.318-0.381-0.775-0.568-1.369-0.568c-0.604,0-1.082,0.193-1.441,0.588
				C443.326,182.225,443.115,182.768,443.057,183.458z"/>
			<path fill="#666666" d="M450.139,187.923v-7.491h0.924l0.139,1.396h0.063c0.271-0.49,0.607-0.867,1.006-1.134
				c0.393-0.267,0.822-0.397,1.293-0.397c0.332,0,0.631,0.027,0.896,0.084l-0.154,1.063c-0.313-0.063-0.584-0.104-0.82-0.104
				c-0.604,0-1.125,0.246-1.555,0.738c-0.438,0.489-0.646,1.104-0.646,1.836v4.016L450.139,187.923L450.139,187.923z"/>
			<path fill="#666666" d="M455.375,182.271c0-0.611,0.242-1.096,0.738-1.447c0.496-0.351,1.184-0.529,2.041-0.529
				c0.809,0,1.586,0.164,2.354,0.492l-0.396,0.924c-0.748-0.311-1.428-0.467-2.037-0.467c-0.539,0-0.938,0.086-1.219,0.254
				c-0.271,0.17-0.41,0.402-0.41,0.699c0,0.201,0.056,0.371,0.154,0.514c0.102,0.146,0.268,0.275,0.496,0.404
				c0.228,0.129,0.666,0.313,1.313,0.555c0.895,0.324,1.486,0.65,1.793,0.98c0.313,0.328,0.459,0.742,0.459,1.24
				c0,0.691-0.258,1.229-0.771,1.604c-0.516,0.377-1.24,0.564-2.174,0.564c-0.992,0-1.771-0.154-2.32-0.467v-1.047
				c0.359,0.186,0.744,0.326,1.156,0.434c0.412,0.104,0.809,0.154,1.188,0.154c0.602,0,1.057-0.094,1.371-0.281
				c0.32-0.189,0.479-0.479,0.479-0.867c0-0.291-0.127-0.541-0.379-0.75c-0.262-0.207-0.748-0.453-1.484-0.736
				c-0.697-0.26-1.193-0.488-1.486-0.682s-0.51-0.414-0.646-0.662C455.448,182.91,455.375,182.615,455.375,182.271z"/>
		</g>
	</g>
	<g>
		<rect x="270.615" y="175.564" fill="#58585A" width="14.217" height="14.217"/>
		<g>
			<path fill="#666666" d="M291.703,186.128v-9.994h1.162v9.994H291.703z"/>
			<path fill="#666666" d="M295.442,186.128v-7.492h0.924l0.189,1.013h0.057c0.23-0.362,0.557-0.646,0.979-0.849
				c0.422-0.2,0.889-0.301,1.398-0.301c0.902,0,1.582,0.219,2.037,0.648c0.455,0.438,0.684,1.137,0.684,2.094v4.887h-1.135v-4.854
				c0-0.61-0.139-1.067-0.418-1.368c-0.273-0.304-0.713-0.453-1.305-0.453c-0.785,0-1.359,0.213-1.729,0.637
				c-0.359,0.432-0.547,1.127-0.547,2.104v3.938h-1.135V186.128L295.442,186.128z"/>
			<path fill="#666666" d="M302.073,188.406c0.314,0.09,0.625,0.137,0.93,0.137c0.355,0,0.617-0.098,0.783-0.291
				c0.168-0.188,0.25-0.49,0.25-0.887v-8.729h1.141v8.642c0,1.478-0.686,2.216-2.049,2.216c-0.434,0-0.777-0.058-1.053-0.17v-0.916
				h-0.002V188.406L302.073,188.406z M303.94,176.605c0-0.262,0.063-0.449,0.189-0.57c0.127-0.119,0.281-0.182,0.479-0.182
				c0.207,0,0.387,0.063,0.539,0.186c0.15,0.123,0.227,0.313,0.227,0.566c0,0.252-0.07,0.443-0.227,0.57
				c-0.152,0.125-0.332,0.189-0.539,0.189c-0.191,0-0.352-0.064-0.479-0.189C303.996,177.052,303.94,176.861,303.94,176.605z"/>
			<path fill="#666666" d="M307.492,183.539v-4.897h1.162v4.856c0,0.609,0.145,1.064,0.416,1.367
				c0.277,0.301,0.711,0.449,1.303,0.449c0.783,0,1.355-0.213,1.723-0.645c0.355-0.428,0.543-1.127,0.543-2.102v-3.938h1.135v7.492
				h-0.924l-0.176-1.004h-0.064c-0.23,0.368-0.555,0.646-0.967,0.85c-0.412,0.193-0.881,0.294-1.408,0.294
				c-0.916,0-1.602-0.22-2.057-0.647C307.721,185.184,307.492,184.49,307.492,183.539z"/>
			<path fill="#666666" d="M316.162,186.128v-7.492h0.93l0.139,1.396h0.059c0.279-0.488,0.615-0.865,1.012-1.138
				c0.393-0.271,0.818-0.396,1.293-0.396c0.332,0,0.631,0.024,0.896,0.082l-0.158,1.062c-0.309-0.063-0.582-0.104-0.814-0.104
				c-0.605,0-1.125,0.246-1.561,0.733c-0.43,0.492-0.645,1.104-0.645,1.841v4.016h-1.141H316.162L316.162,186.128z"/>
			<path fill="#666666" d="M321.783,176.605c0-0.262,0.064-0.449,0.182-0.57c0.113-0.119,0.266-0.182,0.438-0.182
				c0.197,0,0.367,0.063,0.508,0.186c0.146,0.123,0.215,0.313,0.215,0.566c0,0.252-0.064,0.443-0.215,0.57
				c-0.143,0.125-0.311,0.189-0.508,0.189c-0.176,0-0.324-0.064-0.438-0.189C321.846,177.052,321.783,176.861,321.783,176.605z
				 M321.885,186.128v-7.492h1.037v7.492H321.885z"/>
			<path fill="#666666" d="M325.008,182.445c0-1.209,0.297-2.168,0.889-2.879c0.594-0.711,1.389-1.066,2.389-1.066
				c0.939,0,1.682,0.313,2.227,0.926c0.547,0.619,0.813,1.439,0.813,2.445v0.717h-5.148c0.021,0.881,0.238,1.547,0.666,2.004
				c0.424,0.455,1.018,0.689,1.779,0.689c0.809,0,1.605-0.171,2.391-0.507v1.017c-0.4,0.174-0.777,0.299-1.141,0.373
				c-0.354,0.069-0.787,0.106-1.291,0.106c-1.104,0-1.977-0.336-2.609-1.017C325.326,184.58,325.008,183.643,325.008,182.445z
				 M326.198,181.666h3.924c0-0.717-0.154-1.266-0.479-1.645c-0.32-0.381-0.777-0.57-1.371-0.57c-0.604,0-1.082,0.195-1.441,0.588
				C326.473,180.43,326.262,180.973,326.198,181.666z"/>
			<path fill="#666666" d="M332.799,180.477c0-0.608,0.248-1.095,0.738-1.444c0.498-0.355,1.184-0.531,2.049-0.531
				c0.803,0,1.584,0.164,2.352,0.492l-0.396,0.924c-0.75-0.312-1.428-0.465-2.031-0.465c-0.539,0-0.945,0.084-1.225,0.254
				c-0.27,0.168-0.412,0.399-0.412,0.696c0,0.201,0.059,0.371,0.154,0.515c0.105,0.146,0.271,0.274,0.498,0.404
				c0.23,0.129,0.666,0.313,1.314,0.557c0.889,0.324,1.48,0.647,1.791,0.979c0.307,0.328,0.461,0.742,0.461,1.24
				c0,0.692-0.266,1.229-0.775,1.604c-0.518,0.375-1.242,0.563-2.176,0.563c-0.992,0-1.771-0.154-2.32-0.467v-1.047
				c0.359,0.186,0.746,0.326,1.158,0.434c0.412,0.105,0.809,0.156,1.188,0.156c0.602,0,1.057-0.096,1.371-0.283
				c0.32-0.188,0.48-0.479,0.48-0.867c0-0.291-0.127-0.541-0.379-0.75c-0.254-0.207-0.748-0.451-1.484-0.734
				c-0.699-0.262-1.195-0.484-1.486-0.684c-0.293-0.193-0.51-0.414-0.646-0.66C332.867,181.115,332.799,180.82,332.799,180.477z"/>
		</g>
	</g>
</g>
<line fill="none" stroke="#333333" stroke-width="0.5" stroke-miterlimit="10" x1="331.586" y1="145.203" x2="331.586" y2="139.529"/>
<g>
	<g>
		
			<line fill="none" stroke="#333333" stroke-width="0.5" stroke-miterlimit="10" x1="81.304" y1="139.529" x2="81.304" y2="142.37"/>
	</g>
	<g>
		
			<line fill="none" stroke="#333333" stroke-width="0.5" stroke-miterlimit="10" x1="181.038" y1="139.529" x2="181.038" y2="142.37"/>
	</g>
	<g>
		
			<line fill="none" stroke="#333333" stroke-width="0.5" stroke-miterlimit="10" x1="281.488" y1="139.529" x2="281.488" y2="142.37"/>
	</g>
	<g>
		
			<line fill="none" stroke="#333333" stroke-width="0.5" stroke-miterlimit="10" x1="381.963" y1="139.529" x2="381.963" y2="142.37"/>
	</g>
</g>
</svg>
