<svg id="man" xmlns="http://www.w3.org/2000/svg" viewBox="0 0 92 168">
	<defs>
		<style>.cls-1{fill:#F6A400;}</style>
	</defs>
	<path id="head" class="cls-1" d="M45.41,8.45A17,17,0,1,0,62.46,25.5,17,17,0,0,0,45.41,8.45Zm0,27.28A10.23,10.23,0,1,1,55.64,25.5,10.25,10.25,0,0,1,45.41,35.73Z"/>
	<path id="body" class="cls-1" d="M69,45l-.22-.06-8.84-2.25a3.39,3.39,0,0,0-3.25.89L45.41,54.77,34.18,43.54a3.39,3.39,0,0,0-3.25-.89L22.1,44.9l-.23.06A15.43,15.43,0,0,0,11.32,59.59V93.68A17,17,0,0,0,25,110.38V155a3.4,3.4,0,0,0,3.41,3.41H62.46a3.4,3.4,0,0,0,3.4-3.41V110.38A17.06,17.06,0,0,0,79.5,93.68V59.59A15.42,15.42,0,0,0,69,45Zm-3.09,58.31V66.41a3.41,3.41,0,1,0-6.81,0v85.23H48.82V100.5a3.41,3.41,0,1,0-6.81,0v51.14H31.77V66.41a3.41,3.41,0,1,0-6.81,0v36.87a10.2,10.2,0,0,1-6.82-9.6V59.59a8.59,8.59,0,0,1,5.8-8.12l6.8-1.74L43,62a3.4,3.4,0,0,0,4.82,0L60.09,49.73l6.77,1.73a8.61,8.61,0,0,1,5.83,8.13V93.68A10.21,10.21,0,0,1,65.86,103.27Z"/>
</svg>