<?xml version="1.0" encoding="utf-8"?>
<!-- Generator: Adobe Illustrator 16.0.0, SVG Export Plug-In . SVG Version: 6.00 Build 0)  -->
<!DOCTYPE svg PUBLIC "-//W3C//DTD SVG 1.1//EN" "http://www.w3.org/Graphics/SVG/1.1/DTD/svg11.dtd">
<svg version="1.1" id="Layer_1" xmlns="http://www.w3.org/2000/svg" xmlns:xlink="http://www.w3.org/1999/xlink" x="0px" y="0px"
	 width="62.362px" height="62.362px" viewBox="227.319 224.819 62.362 62.362"
	 enable-background="new 227.319 224.819 62.362 62.362" xml:space="preserve">
<path fill="#425661" d="M258.5,226.686c-0.008,0-0.016,0-0.025,0c-0.004,0-0.007,0-0.012,0c-0.012,0-0.022,0.002-0.034,0.002
	c-16.159,0.037-29.244,13.146-29.244,29.312c0,16.162,13.085,29.273,29.244,29.313c0.012,0,0.022,0.002,0.034,0.002
	c0.005,0,0.008,0,0.012,0c0.01,0,0.018,0,0.025,0c16.188,0,29.314-13.127,29.314-29.314
	C287.815,239.811,274.688,226.686,258.5,226.686z M259.672,244.229c3.107-0.085,6.133-0.495,9.043-1.205
	c0.881,3.456,1.424,7.438,1.51,11.804h-10.553V244.229L259.672,244.229z M259.672,241.883v-12.667
	c3.162,0.875,6.365,5.089,8.404,11.552C265.369,241.421,262.561,241.801,259.672,241.883z M257.327,229.189v12.694
	c-2.911-0.082-5.744-0.469-8.472-1.134C250.913,234.248,254.145,230.018,257.327,229.189z M257.327,244.227v10.601h-10.625
	c0.085-4.372,0.632-8.359,1.51-11.817C251.147,243.727,254.195,244.144,257.327,244.227z M244.342,254.828H231.56
	c0.259-6.028,2.504-11.552,6.1-15.926c2.611,1.438,5.381,2.616,8.283,3.495C244.996,246.136,244.428,250.353,244.342,254.828z
	 M244.342,257.173c0.086,4.473,0.654,8.688,1.601,12.429c-2.901,0.882-5.672,2.059-8.283,3.497c-3.596-4.374-5.841-9.898-6.1-15.926
	H244.342z M246.702,257.173h10.625v10.588c-3.133,0.082-6.181,0.501-9.116,1.22C247.333,265.525,246.788,261.54,246.702,257.173z
	 M257.327,270.104v12.708c-3.184-0.832-6.419-5.066-8.476-11.575C251.581,270.572,254.416,270.186,257.327,270.104z
	 M259.672,282.784v-12.681c2.889,0.082,5.697,0.465,8.408,1.117C266.039,277.688,262.834,281.909,259.672,282.784z M259.672,267.761
	v-10.588h10.553c-0.086,4.36-0.629,8.339-1.504,11.792C265.805,268.255,262.781,267.843,259.672,267.761z M272.584,257.173h12.855
	c-0.26,6.027-2.504,11.55-6.1,15.924c-2.631-1.447-5.426-2.634-8.352-3.518C271.934,265.844,272.5,261.637,272.584,257.173z
	 M272.584,254.828c-0.084-4.47-0.652-8.68-1.598-12.417c2.924-0.884,5.719-2.068,8.348-3.515c3.6,4.374,5.846,9.9,6.105,15.933
	H272.584L272.584,254.828z M277.719,237.104c-2.334,1.242-4.795,2.268-7.367,3.046c-1.373-4.411-3.297-8.011-5.572-10.375
	C269.772,230.973,274.231,233.556,277.719,237.104z M252.128,229.798c-2.264,2.359-4.18,5.943-5.546,10.331
	c-2.546-0.776-4.988-1.793-7.3-3.025C242.747,233.579,247.172,231.003,252.128,229.798z M239.274,274.888
	c2.314-1.234,4.757-2.251,7.306-3.028c1.366,4.393,3.282,7.981,5.548,10.343C247.168,280.995,242.741,278.416,239.274,274.888z
	 M264.78,282.223c2.279-2.363,4.203-5.966,5.574-10.384c2.574,0.781,5.039,1.805,7.373,3.051
	C274.239,278.439,269.776,281.027,264.78,282.223z"/>
</svg>
